<svg width="105" height="95" viewBox="0 0 105 95" fill="none" xmlns="http://www.w3.org/2000/svg">
<path fill-rule="evenodd" clip-rule="evenodd" d="M9.21058 61.3649H22.2758C22.6048 61.3649 22.9165 61.4944 23.1459 61.7231C23.3797 61.9519 23.5052 62.2669 23.5052 62.5906V88.3117C23.5052 88.9892 22.9555 89.5373 22.2758 89.5373H9.21056C8.88587 89.5373 8.57418 89.4079 8.3404 89.1791C8.11096 88.9504 7.98108 88.6353 7.98108 88.3117V62.5906C7.98108 61.913 8.53088 61.3649 9.21058 61.3649ZM38.2368 19.5291C37.5572 19.5291 37.003 18.981 37.003 18.3034C37.003 17.6259 37.5571 17.0778 38.2368 17.0778H57.9992C58.6832 17.0778 59.233 17.6259 59.233 18.3034C59.233 18.981 58.6832 19.5291 57.9992 19.5291H38.2368ZM38.2368 13.3361C37.5572 13.3361 37.003 12.788 37.003 12.1104C37.003 11.4329 37.5571 10.8848 38.2368 10.8848H57.9992C58.6832 10.8848 59.233 11.4329 59.233 12.1104C59.233 12.788 58.6832 13.3361 57.9992 13.3361H38.2368ZM38.2368 7.14311C37.9035 7.15605 37.5788 7.0309 37.3407 6.79785C37.1026 6.56913 36.9641 6.24977 36.9641 5.91745C36.9641 5.58514 37.1026 5.2701 37.3407 5.03705C37.5788 4.80401 37.9035 4.68317 38.2368 4.6918H50.5662C51.2328 4.71338 51.761 5.25283 51.761 5.91748C51.761 6.58209 51.2328 7.12592 50.5662 7.14315L38.2368 7.14311ZM75.9951 13.0772C73.7657 13.0772 71.7006 14.2553 70.5708 16.1715C69.4409 18.092 69.4149 20.4613 70.5015 22.4033L59.8173 31.4618C58.4233 30.3614 56.6224 29.8995 54.8647 30.1931C53.1071 30.4909 51.5573 31.5137 50.6005 33.0155L42.0245 29.7054C42.3362 27.9705 41.9033 26.1838 40.8297 24.7813C39.7561 23.383 38.1413 22.494 36.3794 22.343C34.6175 22.1876 32.8728 22.7832 31.5698 23.9786C30.271 25.1697 29.5308 26.8572 29.5395 28.6223C29.5395 29.8134 29.8815 30.9786 30.5222 31.9842L19.3576 42.6137C16.7083 40.7622 13.0847 41.2154 10.9765 43.6581C8.86825 46.105 8.96345 49.7431 11.1973 52.0736C13.4311 54.4084 17.0762 54.6674 19.6218 52.6821C22.1673 50.6926 22.7864 47.1063 21.0504 44.3831L32.2105 33.758H32.2149C33.6175 34.7419 35.3708 35.1088 37.0548 34.7721C38.7388 34.4398 40.2151 33.4343 41.1372 31.9886L49.7132 35.3073V35.303C49.3625 37.3098 50.0119 39.364 51.4535 40.8055C52.8951 42.2512 54.9513 42.9072 56.9645 42.5663C58.9775 42.2254 60.7048 40.9307 61.588 39.0923C62.4711 37.2581 62.4019 35.1046 61.4062 33.3265L72.0904 24.2679C73.6878 25.5238 75.7962 25.9381 77.7486 25.3684C79.7053 24.8031 81.2639 23.3271 81.9348 21.411C82.6015 19.4905 82.2984 17.3716 81.1209 15.7144C79.9434 14.0615 78.0298 13.0772 75.9951 13.0772ZM78.7051 16.6462C79.9953 17.9367 80.1944 19.952 79.1813 21.4668C78.164 22.9817 76.2159 23.5685 74.5319 22.8737C72.8436 22.1746 71.8825 20.3879 72.2375 18.6012C72.5968 16.8145 74.1683 15.5285 75.9951 15.5285C77.0125 15.5285 77.9865 15.9299 78.7051 16.6462ZM58.6224 33.6846C59.9125 34.9707 60.1116 36.9904 59.0943 38.5052C58.0812 40.02 56.1331 40.6069 54.4448 39.9121C52.7565 39.2129 51.7997 37.4263 52.1547 35.6396C52.514 33.8529 54.0855 32.5669 55.9123 32.5669C56.9297 32.5626 57.9038 32.9682 58.6224 33.6846ZM38.5353 25.9165C39.8254 27.2069 40.0246 29.2266 39.0115 30.7371C37.9942 32.2519 36.0504 32.8431 34.362 32.1439C32.6737 31.4491 31.7126 29.6581 32.0719 27.8714C32.4269 26.0847 33.9984 24.7987 35.8253 24.7987C36.8426 24.7987 37.8167 25.2001 38.5353 25.9165ZM18.4526 45.0429C19.7428 46.329 19.9462 48.3487 18.9288 49.8678C17.9158 51.3826 15.9634 51.9738 14.2751 51.2747C12.5868 50.5756 11.6257 48.7889 11.985 46.9979C12.34 45.2112 13.9158 43.9252 15.7426 43.9252C16.76 43.9252 17.734 44.3265 18.4526 45.0429ZM100.307 92.5497V88.8296L78.3803 88.8253V92.5454L100.307 92.5497ZM102.766 88.8296H103.329L103.333 88.8253C103.714 88.8253 104.086 88.6915 104.381 88.4498C104.428 88.4153 104.467 88.3765 104.511 88.3376C104.827 88.0269 105.004 87.5996 105 87.1551V81.8598C105 80.9406 104.255 80.194 103.333 80.194H100.584V76.4739H101.099C102.021 76.4739 102.766 75.7273 102.766 74.808V69.5041C102.766 69.0638 102.593 68.6409 102.277 68.3259C101.965 68.0152 101.541 67.8382 101.099 67.8382H99.333C103.246 63.1557 103.372 56.3891 99.6317 51.5677C95.887 46.7471 89.2852 45.1718 83.7571 47.7785V34.1971C83.7571 33.8734 83.6272 33.5584 83.3978 33.3297C83.1683 33.1009 82.8566 32.9715 82.5276 32.9715H69.4624C68.7828 32.9715 68.2329 33.5195 68.2329 34.1971V88.3107C68.2329 88.6344 68.3628 88.9494 68.5923 89.1781C68.8217 89.4069 69.1377 89.5363 69.4624 89.5363H75.9171V90.585L6.04949 90.5807C5.36982 90.5807 4.82 91.1331 4.82 91.8107C4.82 92.4883 5.36979 93.0364 6.04949 93.0364H75.9215V93.3342C75.9215 94.2534 76.6661 94.9957 77.5882 95H101.1C102.022 95 102.767 94.2534 102.767 93.3342V88.82L102.766 88.8296ZM76.2157 87.0861L70.696 87.0818V35.4231H81.298V49.3017C78.5274 51.4682 76.7567 54.6661 76.3888 58.1574C76.0208 61.6532 77.0901 65.1445 79.3499 67.8374H77.588C76.6659 67.8374 75.917 68.5841 75.917 69.5033V74.0131H75.4018C74.4797 74.0174 73.7395 74.764 73.7351 75.6789V80.9829C73.7351 81.4231 73.9126 81.846 74.2287 82.1568C74.2676 82.1999 74.3109 82.2345 74.3542 82.269C74.6486 82.5107 75.0209 82.6444 75.4018 82.6444H78.1509V86.3645L77.5881 86.3689C77.1422 86.3689 76.7179 86.5415 76.4062 86.8565C76.337 86.9256 76.272 86.999 76.2158 87.0809L76.2157 87.0861ZM80.6097 86.374V82.6539H102.541V86.374L80.6185 86.3697L80.6097 86.374ZM79.8175 80.1984H76.1897V76.4782L98.1165 76.4696V80.1897L79.8175 80.1984ZM78.3802 74.014V70.2939H82.0859C86.4756 73.2285 92.2074 73.2285 96.5974 70.2939H100.308V74.014H78.3802ZM96.8137 52.0647C100.377 55.6165 100.922 61.1837 98.1255 65.3567C95.3246 69.5342 89.9564 71.1569 85.303 69.2364C80.6449 67.3116 78.0041 62.3789 78.9868 57.4548C79.9695 52.5263 84.3073 48.9788 89.3464 48.9788C92.1473 48.9788 94.8353 50.0881 96.8137 52.0647ZM88.1165 51.3095H88.1122C88.1035 50.9772 88.2291 50.6578 88.4585 50.4205C88.6923 50.1788 89.0083 50.045 89.3416 50.045C89.675 50.045 89.9953 50.1788 90.2248 50.4205C90.4586 50.6578 90.5841 50.9772 90.5711 51.3095V51.6029C92.6014 52.1597 94.0042 53.9939 94.0085 56.0869C94.0085 56.7645 93.4543 57.3169 92.7747 57.3169C92.095 57.3169 91.5452 56.7645 91.5452 56.0869C91.5581 55.4957 91.333 54.926 90.9174 54.5031C90.5018 54.0801 89.9347 53.8428 89.3416 53.8428C88.7485 53.8428 88.1814 54.0801 87.7658 54.5031C87.3545 54.926 87.1294 55.4957 87.1424 56.0869C87.1424 57.7269 88.3849 58.0203 89.6273 58.3138C91.8179 58.8317 94.0084 59.3539 94.0084 62.9272V62.9316C94.004 65.0246 92.6014 66.8631 90.571 67.4155V67.709C90.584 68.0413 90.4584 68.365 90.2247 68.6023C89.9952 68.8397 89.6749 68.9735 89.3415 68.9735C89.0082 68.9735 88.6921 68.8397 88.4584 68.6023C88.2289 68.365 88.1034 68.0413 88.112 67.709V67.4155C86.086 66.8631 84.6833 65.0246 84.679 62.9316C84.6704 62.5993 84.7959 62.2756 85.0253 62.0382C85.2591 61.8009 85.5795 61.6671 85.9128 61.6671C86.2418 61.6671 86.5622 61.8009 86.7959 62.0382C87.0254 62.2756 87.1509 62.5993 87.1423 62.9316C87.1293 63.5228 87.3544 64.0925 87.7657 64.5154C88.1813 64.9383 88.7484 65.1757 89.3415 65.1757C89.9346 65.1757 90.5017 64.9384 90.9173 64.5154C91.3329 64.0925 91.558 63.5228 91.545 62.9316C91.545 61.2916 90.3026 60.9981 89.0601 60.7047C86.8696 60.1868 84.6791 59.6646 84.6791 56.0912V56.0869C84.6834 53.9939 86.086 52.1597 88.1121 51.6029V51.3138L88.1165 51.3095ZM17.4044 17.1123H29.3702C28.7338 24.0303 22.9155 29.326 15.9504 29.326C15.3486 29.326 14.7469 29.2872 14.1538 29.2095L17.4044 17.1123ZM11.7549 28.6609C5.5902 26.6455 1.73725 20.5388 2.58584 14.126C3.43867 7.71295 8.7505 2.815 15.231 2.46919V15.7269L11.7549 28.6609ZM17.6901 2.55978C23.9413 3.37544 28.7948 8.39892 29.37 14.6563H17.6901V2.55978ZM15.9412 0.000604649C20.8981 0.00492114 25.5691 2.30082 28.5863 6.21947C31.6038 10.1424 32.6211 15.2349 31.3354 20.0075C30.054 24.7806 26.6166 28.6863 22.0365 30.5765C17.4606 32.4624 12.2613 32.1258 7.96719 29.653C3.67703 27.1801 0.780829 22.8602 0.135826 17.9619C-0.509211 13.0636 1.16616 8.14809 4.67279 4.65225C7.65987 1.67015 11.7116 -0.00370411 15.9412 0.000604649ZM49.375 50.0065H62.4402V50.0108C63.1198 50.0108 63.6696 50.5589 63.6696 51.2365V88.3128C63.6696 88.9903 63.1199 89.5384 62.4402 89.5384H49.375C48.6953 89.5384 48.1455 88.9904 48.1411 88.3128V51.2332C48.1411 50.5556 48.6953 50.0032 49.375 50.0032V50.0065ZM61.2067 52.4621V87.0869H50.609V52.4577L61.2067 52.4621ZM29.2879 42.2383H42.3575C43.0372 42.2383 43.587 42.7864 43.587 43.464V88.3126C43.587 88.6363 43.4571 88.9514 43.2277 89.1801C42.9939 89.4088 42.6822 89.5383 42.3575 89.5383H29.2879C28.6125 89.5383 28.0584 88.9902 28.0584 88.3126V43.464C28.0584 42.7864 28.6125 42.2383 29.2879 42.2383ZM41.124 44.694V87.0866H30.5263V44.6896L41.124 44.694ZM21.0458 63.8171H10.4395V87.0866H21.0415L21.0458 63.8171Z" fill="white"/>
</svg>
