<svg width="18" height="24" viewBox="0 0 18 24" fill="none" xmlns="http://www.w3.org/2000/svg">
<mask id="path-1-inside-1_2029_1931" fill="white">
<path d="M7 2H7.6V22H7V2Z"/>
</mask>
<path d="M7.6 2H8.2V1.4H7.6V2ZM7.6 22V22.6H8.2V22H7.6ZM7 2.6H7.6V1.4H7V2.6ZM7 2V22H8.2V2H7ZM7.6 21.4H7V22.6H7.6V21.4Z" fill="#0671A3" mask="url(#path-1-inside-1_2029_1931)"/>
<path d="M18 2L15 0.26795L15 3.73205L18 2ZM7 2.3L15.3 2.3L15.3 1.7L7 1.7L7 2.3Z" fill="#0671A3"/>
<path d="M0 12L7 12" stroke="#0671A3" stroke-width="0.6"/>
<path d="M18 22L15 20.2679L15 23.7321L18 22ZM7 22.3L15.3 22.3L15.3 21.7L7 21.7L7 22.3Z" fill="#0671A3"/>
</svg>
