<svg width="96" height="95" viewBox="0 0 96 95" fill="none" xmlns="http://www.w3.org/2000/svg">
<path d="M44.8852 0.00166713C19.9232 1.66851 0.499023 22.4353 0.499023 47.4528C0.499023 73.6964 21.8026 95 48.0462 95C59.5626 95 70.6912 90.8288 79.359 83.2461C79.3889 83.2184 79.4177 83.1895 79.4454 83.1596C79.5452 83.0581 79.6313 82.944 79.7016 82.8201C79.7367 82.7582 79.7678 82.694 79.7945 82.628C79.8213 82.5622 79.8438 82.4948 79.8618 82.4262C79.8802 82.3567 79.8941 82.2861 79.9033 82.2148C79.9122 82.1447 79.9165 82.074 79.9163 82.0034C79.9157 81.9316 79.9103 81.8599 79.9002 81.7888C79.8909 81.7186 79.877 81.6491 79.8587 81.5806C79.8026 81.3777 79.708 81.1874 79.58 81.0202C79.578 81.0158 79.5759 81.0115 79.5738 81.0072C79.5708 81.0038 79.5677 81.0005 79.5645 80.9972C79.549 80.9755 79.5328 80.9541 79.5162 80.9332C79.5131 80.9311 79.51 80.929 79.5069 80.927C79.508 80.928 79.5058 80.9259 79.5069 80.927C79.4842 80.9006 79.4575 80.8718 79.4332 80.8469L60.0051 61.4197C59.9842 61.4021 59.9628 61.3849 59.9411 61.3683C59.9242 61.3541 59.907 61.3403 59.8896 61.3268C59.8214 61.2686 59.7486 61.2161 59.6718 61.1699C59.6363 61.1493 59.6 61.1301 59.563 61.1122C59.4996 61.0814 59.4344 61.0546 59.3676 61.0321C59.3244 61.0165 59.2806 61.0026 59.2363 60.9906C59.1677 60.9744 59.0982 60.9626 59.0281 60.9553C58.9771 60.9485 58.9258 60.9442 58.8743 60.9423C58.8241 60.942 58.7739 60.9441 58.7238 60.9485C58.6584 60.951 58.5931 60.9574 58.5285 60.9677C58.5264 60.9677 58.5243 60.9677 58.5223 60.9677C58.4932 60.9754 58.4644 60.9838 58.4358 60.9931C58.2704 61.0356 58.1126 61.1037 57.9682 61.1949C57.9542 61.2021 57.9404 61.2096 57.9267 61.2172C57.9127 61.2244 57.8989 61.2319 57.8851 61.2395C55.0126 63.2896 51.5755 64.3974 48.0465 64.3974C38.6699 64.3974 31.1106 56.8284 31.1106 47.4519C31.1106 39.1606 37.082 32.0996 45.2601 30.7339C45.3617 30.7166 45.4614 30.6898 45.558 30.6538C45.5893 30.6429 45.6203 30.6312 45.6508 30.6185C45.7332 30.5823 45.8125 30.5395 45.8878 30.4904C45.89 30.4893 45.8921 30.4882 45.8942 30.4871C45.9007 30.4818 45.9071 30.4765 45.9134 30.471C45.9959 30.4152 46.0731 30.3519 46.144 30.2821C46.1494 30.2757 46.1547 30.2693 46.16 30.2629C46.2219 30.2003 46.2787 30.1328 46.3298 30.0611C46.3407 30.0451 46.3514 30.029 46.3618 30.0127C46.4111 29.9363 46.4539 29.856 46.4899 29.7725C46.5001 29.7482 46.5097 29.7236 46.5187 29.6989C46.5462 29.6279 46.5687 29.5552 46.586 29.4811C46.5907 29.4598 46.595 29.4385 46.5988 29.417C46.6177 29.3178 46.6273 29.217 46.6276 29.1159V1.73929C46.6323 1.66785 46.6323 1.59618 46.6276 1.52473C46.6227 1.50329 46.6174 1.48194 46.6116 1.46071C46.5932 1.28574 46.5467 1.11487 46.4739 0.954677C46.4579 0.923165 46.4408 0.892182 46.4227 0.861775C46.3406 0.708281 46.2347 0.568825 46.1088 0.448644C46.0747 0.419444 46.0395 0.391656 46.0031 0.365348C45.8703 0.256241 45.7212 0.168695 45.5612 0.105917C45.5263 0.0939903 45.491 0.0832419 45.4555 0.0736897C45.306 0.0272479 45.1507 0.00243282 44.9943 0C44.974 0.00168723 44.9537 0.00375375 44.9334 0.00619788C44.9174 0.00389569 44.9012 0.00349644 44.8852 0.00166713ZM51.108 0.00166713C51.0791 0.00420676 51.0503 0.00751347 51.0215 0.0115834C50.9432 0.0134228 50.865 0.020879 50.7877 0.0338948C50.7369 0.046357 50.6866 0.0612483 50.6372 0.0785175C50.5875 0.090058 50.5383 0.103914 50.4899 0.120041C50.3818 0.164434 50.2787 0.220261 50.1824 0.286571C50.1662 0.298054 50.1502 0.309831 50.1344 0.321897C50.0525 0.381975 49.9764 0.449529 49.907 0.52369C49.8972 0.535332 49.8876 0.547108 49.8782 0.559017C49.8083 0.637212 49.7461 0.721928 49.6924 0.812002C49.6848 0.825735 49.6773 0.839578 49.67 0.853526C49.6172 0.950372 49.5742 1.0523 49.5419 1.15777C49.5408 1.16416 49.5397 1.17057 49.5387 1.17698C49.4915 1.32523 49.4656 1.47944 49.4618 1.63498L49.4746 28.9668C49.443 29.3112 49.521 29.6568 49.6976 29.9542C49.8742 30.2516 50.1403 30.4855 50.4579 30.6226C50.4833 30.6329 50.5089 30.6426 50.5347 30.6517C50.5904 30.6719 50.647 30.6891 50.7045 30.7031C50.7468 30.7146 50.7895 30.7243 50.8326 30.7323C50.8358 30.7333 50.839 30.7344 50.8422 30.7355C54.8765 31.409 58.529 33.5225 61.1292 36.6797C61.1313 36.6817 61.1334 36.6838 61.1354 36.6859C61.1757 36.732 61.2184 36.7758 61.2636 36.8172C61.2794 36.8313 61.2955 36.8452 61.3119 36.8587C61.3607 36.9023 61.412 36.943 61.4656 36.9804C61.4825 36.9925 61.4997 37.0043 61.517 37.0158C61.6959 37.1287 61.8949 37.2059 62.1031 37.2432C62.1149 37.2453 62.1267 37.2474 62.1385 37.2494C62.3637 37.2847 62.5939 37.2727 62.8142 37.214C62.8163 37.213 62.8184 37.2119 62.8204 37.2108C62.8925 37.1911 62.9631 37.1665 63.0318 37.1372C63.0351 37.1351 63.0384 37.1331 63.0417 37.131C63.0997 37.1086 63.1564 37.083 63.2115 37.0541L87.0107 23.3146C87.0434 23.2965 87.0754 23.2773 87.1068 23.2569C87.1352 23.2376 87.163 23.2173 87.1901 23.1962C87.1976 23.1909 87.205 23.1855 87.2124 23.1801C87.2331 23.1634 87.2533 23.1463 87.2731 23.1287C87.2851 23.1181 87.2968 23.1073 87.3085 23.0964C87.3225 23.0828 87.3364 23.069 87.35 23.0549C87.3675 23.0381 87.3847 23.021 87.4014 23.0035C87.4089 22.9951 87.4164 22.9866 87.4237 22.9781C87.4446 22.9551 87.4649 22.9316 87.4845 22.9076C87.4876 22.9033 87.4907 22.8989 87.4938 22.8946C87.5149 22.8664 87.5352 22.8376 87.5545 22.8081C87.5747 22.7778 87.594 22.7468 87.6121 22.7152C87.6165 22.7078 87.6209 22.7004 87.6252 22.6929C87.6262 22.6898 87.6273 22.6867 87.6283 22.6836C87.6478 22.6491 87.666 22.6138 87.6829 22.5779C87.6917 22.5599 87.7002 22.5417 87.7083 22.5234C87.7172 22.5022 87.7257 22.4809 87.7337 22.4593C87.7382 22.4476 87.7425 22.4358 87.7467 22.424C87.756 22.3943 87.7645 22.3644 87.7721 22.3343C87.7732 22.33 87.7743 22.3256 87.7753 22.3213C87.7851 22.2842 87.7936 22.2468 87.8007 22.2092C87.8082 22.1763 87.8146 22.1432 87.82 22.1099C87.8211 22.1014 87.8222 22.093 87.8232 22.0845C87.8259 22.0579 87.828 22.0312 87.8294 22.0044C87.8294 22.0001 87.8294 21.9957 87.8294 21.9914C87.8335 21.9242 87.8335 21.8568 87.8294 21.7896C87.8247 21.7154 87.8149 21.6415 87.8002 21.5686C87.7971 21.5558 87.7938 21.5429 87.7903 21.5302C87.7837 21.5012 87.7762 21.4723 87.768 21.4437C87.7611 21.419 87.7537 21.3945 87.7457 21.3701C87.7406 21.3539 87.7352 21.3378 87.7296 21.3218C87.7225 21.3034 87.715 21.2853 87.7073 21.2672C87.6821 21.2057 87.6532 21.1458 87.6208 21.0879C87.6188 21.0835 87.6167 21.0792 87.6146 21.0748C87.6116 21.0694 87.6085 21.0641 87.6053 21.0587C87.589 21.0315 87.5718 21.0048 87.5539 20.9787C79.3496 8.731 65.9267 0.983663 51.2169 0.00166713C51.1913 0.00213386 51.1656 0.00320227 51.14 0.00487135C51.1294 0.00369845 51.1187 0.00263028 51.108 0.00166713ZM52.7414 3.42215C65.1741 4.74604 76.4678 11.2706 83.8299 21.3764L62.7402 33.5531C60.0432 30.7033 56.5697 28.699 52.7542 27.785L52.7414 3.42215ZM43.3479 3.42535V27.7786C34.3165 29.9327 27.8308 38.0494 27.8308 47.4528C27.8308 58.6017 36.8973 67.6682 48.0462 67.6682C51.7913 67.6682 55.4573 66.6354 58.6343 64.6865L75.8552 81.9074C67.9949 88.2484 58.1807 91.7204 48.0462 91.7204C23.575 91.7204 3.77858 71.924 3.77858 47.4528C3.77858 24.7208 20.9318 5.80742 43.3479 3.42535ZM89.3578 25.5528C89.2203 25.5463 89.0826 25.5571 88.9478 25.585C88.9296 25.589 88.9114 25.5934 88.8933 25.598C88.7784 25.6244 88.6668 25.663 88.5602 25.7133C88.5474 25.7175 88.5345 25.7218 88.5218 25.7263C88.5154 25.7306 88.5089 25.7349 88.5026 25.7393C88.4767 25.7504 88.451 25.7622 88.4257 25.7746L64.6649 39.5046C64.652 39.5108 64.6392 39.5172 64.6265 39.5238C64.5413 39.5751 64.4609 39.6341 64.3863 39.6999C64.3712 39.7125 64.3563 39.7253 64.3417 39.7384C64.283 39.793 64.2284 39.8519 64.1783 39.9145C64.1606 39.9365 64.1434 39.9589 64.1269 39.9817C64.0868 40.0391 64.0504 40.099 64.018 40.1611C64.0023 40.1874 63.9875 40.2141 63.9733 40.2412C63.931 40.3297 63.8967 40.4219 63.8708 40.5166C63.8674 40.5294 63.8641 40.5422 63.8609 40.555C63.8403 40.6392 63.8264 40.7249 63.8194 40.8112C63.8189 40.8336 63.8189 40.8561 63.8194 40.8785C63.8167 40.9597 63.82 41.0411 63.8293 41.1219C63.8309 41.1443 63.833 41.1667 63.8355 41.1891C63.8485 41.2716 63.8678 41.3529 63.8931 41.4325C63.8983 41.4487 63.9036 41.4648 63.9093 41.4808C63.9112 41.4905 63.9133 41.5003 63.9155 41.5099C64.6261 43.409 64.9916 45.4265 64.9916 47.4541C64.9916 50.9834 63.8936 54.4234 61.8433 57.296C61.8422 57.2981 61.8412 57.3001 61.8401 57.3022C61.8102 57.3457 61.7824 57.3906 61.7568 57.4367C61.7338 57.4753 61.7125 57.5148 61.6927 57.5552C61.6737 57.5982 61.6566 57.642 61.6413 57.6865C61.6211 57.7421 61.6039 57.7988 61.5899 57.8563C61.5801 57.8923 61.5717 57.9286 61.5644 57.9652C61.5504 58.0424 61.5419 58.1205 61.539 58.1989C61.5377 58.2161 61.5366 58.2332 61.5358 58.2504C61.5375 58.3504 61.5483 58.4501 61.5681 58.5482C61.5709 58.5654 61.574 58.5826 61.5774 58.5997C61.597 58.6871 61.6238 58.7728 61.6574 58.8559C61.6605 58.8644 61.6636 58.8729 61.6667 58.8813C61.7032 58.9682 61.7472 59.0518 61.798 59.1311C61.8053 59.143 61.8128 59.1548 61.8204 59.1665C61.8903 59.2704 61.972 59.3661 62.0637 59.4515L81.44 78.8406C81.465 78.8627 81.4906 78.8841 81.5169 78.9047C81.52 78.9078 81.5231 78.9109 81.5262 78.914C81.5326 78.9184 81.539 78.9227 81.5454 78.927C81.6434 79.0109 81.7509 79.0829 81.8657 79.1415C81.8741 79.146 81.8826 79.1503 81.8911 79.1546C82.1383 79.2735 82.4114 79.3286 82.6854 79.3147C82.71 79.3132 82.7345 79.3111 82.7591 79.3085C82.8599 79.2985 82.9596 79.2792 83.0569 79.2509C83.0957 79.2415 83.1342 79.2308 83.1722 79.2186C83.2704 79.1808 83.3648 79.1336 83.4541 79.0777C83.4969 79.0519 83.5386 79.0241 83.5789 78.9944C83.6445 78.9478 83.7066 78.8964 83.7647 78.8407C83.79 78.8169 83.8145 78.7923 83.8383 78.767C91.4219 70.099 95.6018 58.9714 95.6018 47.4542C95.6018 40.2157 93.9506 33.075 90.7721 26.5727C90.7444 26.5066 90.7123 26.4424 90.6761 26.3805C90.5529 26.1672 90.3832 25.9843 90.1797 25.8456C90.1659 25.8369 90.1521 25.8285 90.1381 25.8202C90.0262 25.7471 89.9057 25.6879 89.7794 25.6441C89.7805 25.6441 89.7783 25.6441 89.7794 25.6441C89.6441 25.5959 89.501 25.5642 89.3578 25.5528ZM88.5283 29.5081C91.0292 35.1521 92.3235 41.2669 92.3235 47.4528C92.3235 57.5905 88.8404 67.3951 82.4944 75.2554L65.2799 58.0281C67.2306 54.8535 68.2712 51.1975 68.2712 47.4528C68.2712 45.501 67.9897 43.5558 67.4353 41.6879L88.5283 29.5081Z" fill="white"/>
</svg>
