<svg width="72" height="87" viewBox="0 0 72 87" fill="none" xmlns="http://www.w3.org/2000/svg">
<path fill-rule="evenodd" clip-rule="evenodd" d="M8.70674 79.6043H0.885249C0.397085 79.6043 0 79.2068 0 78.7182V0.883656C0 0.373127 0.408016 -0.0243681 0.965435 0.00116446H63.4426C63.9308 0.00116446 64.3243 0.39865 64.3243 0.883656H64.3279V8.66561H71.1148C71.6029 8.66561 72 9.0631 72 9.55176V86.1139C72 86.6025 71.6029 87 71.1148 87H9.5916C9.10344 87 8.70635 86.6025 8.70635 86.1139L8.70674 79.6043ZM18.6232 79.8742H62.0873C63.2567 79.8742 63.2567 78.0983 62.0873 78.0983H18.6232C17.4574 78.0983 17.4574 79.8742 18.6232 79.8742ZM18.6232 72.1068H62.0873C63.2567 72.1068 63.2567 70.3309 62.0873 70.3309H18.6232C17.4574 70.3309 17.4574 72.1068 18.6232 72.1068ZM18.6232 64.3394H62.0873C63.2567 64.3394 63.2567 62.5635 62.0873 62.5635H18.6232C17.4574 62.5635 17.4574 64.3394 18.6232 64.3394ZM40.3576 32.5007C38.5907 32.5007 36.995 33.2155 35.8366 34.3751C33.2937 36.9205 33.3484 41.0595 35.9531 43.5392C32.638 43.7726 28.7837 46.504 28.7837 50.0558V55.0189C28.7837 55.5076 29.1808 55.9051 29.669 55.9051L51.0425 55.9087C51.5306 55.9087 51.9277 55.5112 51.9277 55.0226V50.0595C51.9277 46.5076 48.0698 43.7762 44.7583 43.5428C45.986 42.3759 46.7474 40.724 46.7474 38.9042C46.751 35.3669 43.8877 32.5007 40.3576 32.5007ZM43.6217 35.6296C40.7182 32.7232 35.7383 34.7909 35.7383 38.9007C35.7383 43.0068 40.7219 45.0745 43.6217 42.1717C45.4286 40.363 45.4286 37.4347 43.6217 35.6296ZM30.5615 50.0557V54.1327H50.1574V50.0557C50.1574 47.4374 46.8386 45.2968 44.3031 45.2968H36.4124C33.8769 45.2968 30.5615 47.4338 30.5615 50.0557ZM57.2359 19.1133C56.9772 18.2964 55.8151 18.2855 55.5492 19.1097L54.4089 22.647L50.7586 22.6397C49.815 22.6032 49.4908 23.7446 50.1757 24.2405L53.1848 26.4212L52.03 29.9549H52.0336C51.7713 30.7644 52.7039 31.4464 53.3924 30.9431L56.3943 28.7514L59.3415 30.903C60.0883 31.4901 61.0173 30.7571 60.7586 29.9549L59.6038 26.4212L62.6129 24.2405V24.2369C63.3015 23.7373 62.9481 22.636 62.0956 22.636L58.3797 22.6433L57.2359 19.1133ZM56.8898 23.7992L56.3944 22.2567L55.8953 23.7992C55.7823 24.1566 55.4472 24.4119 55.0537 24.4119L53.4326 24.4082C55.5055 25.9107 55.3597 25.4548 54.5619 27.8908C56.6274 26.3811 56.1502 26.3811 58.2195 27.8908C57.4253 25.4585 57.2723 25.9107 59.3488 24.4082L57.7713 24.4119C57.3852 24.4301 57.0137 24.1894 56.8898 23.7992ZM41.2034 16.4147C40.9447 15.5978 39.7826 15.5905 39.5166 16.411L38.3763 19.9484L34.726 19.9411C33.7825 19.9082 33.4582 21.046 34.1431 21.5419L37.1523 23.7226L35.9974 27.2562H36.0011C35.7388 28.0658 36.6714 28.7478 37.3599 28.2445L40.3618 26.0528L43.309 28.2044C44.0558 28.7915 44.9848 28.0585 44.7261 27.2562L43.5712 23.7226L46.5804 21.5419V21.5383C47.2689 21.0387 46.9156 19.9374 46.0631 19.9374L42.3472 19.9447L41.2034 16.4147ZM40.8536 21.1006L40.3545 19.5581L39.8591 21.1006C39.7462 21.458 39.411 21.7169 39.0176 21.7169L37.3964 21.7133C39.4693 23.2157 39.3235 22.7599 38.5257 25.1995C40.5912 23.6898 40.114 23.6898 42.1833 25.1995C41.3891 22.7672 41.2361 23.2194 43.3126 21.7133L41.7388 21.7169C41.349 21.7315 40.9811 21.4908 40.8536 21.1006ZM25.1672 19.1132C24.9085 18.2964 23.7464 18.2854 23.4805 19.1096L22.3402 22.6469L18.6898 22.6396C17.7463 22.6031 17.4221 23.7445 18.107 24.2404L21.1161 26.4211L19.9613 29.9548H19.9649C19.7026 30.7643 20.6352 31.4463 21.3237 30.943L24.3256 28.7513L27.2728 30.9029C28.0196 31.49 28.9523 30.757 28.6899 29.9548L27.5351 26.4211L30.5442 24.2404V24.2368C31.2327 23.7372 30.8794 22.6359 30.0269 22.6359L26.311 22.6432L25.1672 19.1132ZM24.8211 23.7991L24.3256 22.2566L23.8266 23.7991C23.7136 24.1565 23.3785 24.4118 22.985 24.4118L21.3639 24.4081C23.4368 25.9106 23.291 25.4547 22.4932 27.8907C24.5587 26.381 24.0815 26.381 26.1508 27.8907C25.3566 25.4584 25.2036 25.9106 27.2801 24.4081L25.7026 24.4118C25.3128 24.43 24.945 24.1893 24.8211 23.7991ZM62.559 8.66168V1.76584H1.77544V77.8285H8.70807V9.55163C8.70807 9.06297 9.10515 8.66548 9.59332 8.66548L62.559 8.66168ZM10.4823 85.2238H70.2307V10.4382H10.4823V85.2238Z" fill="black"/>
</svg>
