<svg width="67" height="87" viewBox="0 0 67 87" fill="none" xmlns="http://www.w3.org/2000/svg">
<path d="M10.7676 80.161H22.7319V47.8574H10.7676V80.161ZM13.1604 50.2503H20.339V77.7681H13.1604V50.2503Z" fill="black"/>
<path d="M27.5176 80.1608H39.4819V37.0894H27.5176V80.1608ZM29.9104 39.4822H37.089V77.7679H29.9104V39.4822Z" fill="black"/>
<path d="M44.2695 80.161H56.2338V47.8574H44.2695V80.161ZM46.6624 50.2503H53.841V77.7681H46.6624V50.2503Z" fill="black"/>
<path d="M37.3281 19.6064L25.0346 31.8962L18.9665 27.0394L7.44727 41.1161L9.30173 42.6341L19.3182 30.3893L25.2144 35.104L36.8495 23.4652L47.4757 41.1723L59.2906 33.2983L57.9596 31.3092L48.2389 37.7924L37.3281 19.6064Z" fill="black"/>
<path d="M51.9403 0H0V86.1429H67V15.0597L51.9403 0ZM52.6432 4.08279L62.9172 14.3568H52.6432V4.08279ZM64.6075 83.7496H2.39322V2.39247H50.2504V16.7496H64.6075V83.7496Z" fill="black"/>
</svg>
