<svg width="754" height="425" viewBox="0 0 754 425" fill="none" xmlns="http://www.w3.org/2000/svg">
<g clip-path="url(#clip0_603_105)">
<rect width="754" height="425" rx="12" fill="#000321" fill-opacity="0.2"/>
<g clip-path="url(#clip1_603_105)">
<rect width="754" height="104" fill="#FFE600"/>
<g clip-path="url(#clip2_603_105)">
<mask id="path-2-inside-1_603_105" fill="white">
<path d="M0 0H754V104H0V0Z"/>
</mask>
<path d="M58.4609 32.7812V47H55.7852V32.7812H58.4609ZM62.875 32.7812V34.9004H51.4199V32.7812H62.875ZM66.3613 38.5918V47H63.7832V36.4336H66.2246L66.3613 38.5918ZM69.5742 36.3652L69.5352 38.7676C69.3919 38.7415 69.2292 38.722 69.0469 38.709C68.8711 38.696 68.7051 38.6895 68.5488 38.6895C68.1517 38.6895 67.8034 38.7448 67.5039 38.8555C67.2044 38.9596 66.9538 39.1126 66.752 39.3145C66.5566 39.5163 66.4069 39.7637 66.3027 40.0566C66.1986 40.3431 66.14 40.6686 66.127 41.0332L65.5703 40.9648C65.5703 40.2943 65.6387 39.6725 65.7754 39.0996C65.9121 38.5267 66.1107 38.0254 66.3711 37.5957C66.6315 37.166 66.957 36.834 67.3477 36.5996C67.7448 36.3587 68.2005 36.2383 68.7148 36.2383C68.8581 36.2383 69.0111 36.2513 69.1738 36.2773C69.3431 36.2969 69.4766 36.3262 69.5742 36.3652ZM75.541 47.1953C74.7402 47.1953 74.0208 47.0651 73.3828 46.8047C72.7448 46.5443 72.2012 46.1829 71.752 45.7207C71.3092 45.252 70.9674 44.7083 70.7266 44.0898C70.4922 43.4648 70.375 42.7943 70.375 42.0781V41.6875C70.375 40.8737 70.4922 40.1348 70.7266 39.4707C70.9609 38.8001 71.293 38.224 71.7227 37.7422C72.1523 37.2604 72.6667 36.8893 73.2656 36.6289C73.8646 36.3685 74.5254 36.2383 75.248 36.2383C75.9967 36.2383 76.6576 36.3652 77.2305 36.6191C77.8034 36.8665 78.2819 37.2181 78.666 37.6738C79.0501 38.1296 79.3398 38.6764 79.5352 39.3145C79.7305 39.946 79.8281 40.6458 79.8281 41.4141V42.498H71.5469V40.7207H77.2891V40.5254C77.276 40.1152 77.1979 39.7409 77.0547 39.4023C76.9115 39.0573 76.6901 38.7839 76.3906 38.582C76.0911 38.3737 75.7038 38.2695 75.2285 38.2695C74.8444 38.2695 74.5091 38.3542 74.2227 38.5234C73.9427 38.6862 73.7083 38.9206 73.5195 39.2266C73.3372 39.526 73.2005 39.8841 73.1094 40.3008C73.0182 40.7174 72.9727 41.1797 72.9727 41.6875V42.0781C72.9727 42.5208 73.0312 42.931 73.1484 43.3086C73.2721 43.6862 73.4512 44.015 73.6855 44.2949C73.9264 44.5684 74.2129 44.7832 74.5449 44.9395C74.8835 45.0892 75.2676 45.1641 75.6973 45.1641C76.2376 45.1641 76.7259 45.0599 77.1621 44.8516C77.6048 44.6367 77.9889 44.321 78.3145 43.9043L79.6133 45.252C79.3919 45.5775 79.0924 45.89 78.7148 46.1895C78.3438 46.4889 77.8945 46.7331 77.3672 46.9219C76.8398 47.1042 76.2311 47.1953 75.541 47.1953ZM87.377 44.7539V39.8809C87.377 39.5228 87.3151 39.2135 87.1914 38.9531C87.0677 38.6927 86.8789 38.4909 86.625 38.3477C86.3711 38.2044 86.0488 38.1328 85.6582 38.1328C85.3132 38.1328 85.0104 38.1914 84.75 38.3086C84.4961 38.4258 84.3008 38.5918 84.1641 38.8066C84.0273 39.015 83.959 39.2559 83.959 39.5293H81.3711C81.3711 39.0931 81.4753 38.6797 81.6836 38.2891C81.8919 37.8919 82.1882 37.5404 82.5723 37.2344C82.9629 36.9219 83.4284 36.6777 83.9688 36.502C84.5156 36.3262 85.1276 36.2383 85.8047 36.2383C86.6055 36.2383 87.3184 36.375 87.9434 36.6484C88.5749 36.9154 89.0697 37.319 89.4277 37.8594C89.7923 38.3997 89.9746 39.0801 89.9746 39.9004V44.5098C89.9746 45.0371 90.0072 45.4896 90.0723 45.8672C90.1439 46.2383 90.248 46.5605 90.3848 46.834V47H87.7578C87.6341 46.7331 87.5397 46.3945 87.4746 45.9844C87.4095 45.5677 87.377 45.1576 87.377 44.7539ZM87.7383 40.5645L87.7578 42.0977H86.127C85.7233 42.0977 85.3685 42.14 85.0625 42.2246C84.7565 42.3027 84.5059 42.4199 84.3105 42.5762C84.1152 42.7259 83.9688 42.9082 83.8711 43.123C83.7734 43.3314 83.7246 43.569 83.7246 43.8359C83.7246 44.0964 83.7832 44.3307 83.9004 44.5391C84.0241 44.7474 84.1999 44.9134 84.4277 45.0371C84.6621 45.1543 84.9355 45.2129 85.248 45.2129C85.7038 45.2129 86.1009 45.1217 86.4395 44.9395C86.778 44.7507 87.0417 44.5228 87.2305 44.2559C87.4193 43.9889 87.5202 43.735 87.5332 43.4941L88.2754 44.6074C88.1842 44.8743 88.0475 45.1576 87.8652 45.457C87.6829 45.7565 87.4486 46.0365 87.1621 46.2969C86.8757 46.5573 86.5306 46.7721 86.127 46.9414C85.7233 47.1107 85.2546 47.1953 84.7207 47.1953C84.0371 47.1953 83.4251 47.0586 82.8848 46.7852C82.3444 46.5117 81.918 46.1374 81.6055 45.6621C81.293 45.1868 81.1367 44.6465 81.1367 44.041C81.1367 43.4811 81.2409 42.9863 81.4492 42.5566C81.6576 42.127 81.9668 41.7656 82.377 41.4727C82.7871 41.1732 83.2949 40.9486 83.9004 40.7988C84.5124 40.6426 85.2122 40.5645 86 40.5645H87.7383ZM97.2988 36.4336V38.2891H91.2441V36.4336H97.2988ZM92.8652 33.8359H95.4531V43.9531C95.4531 44.2656 95.4954 44.5065 95.5801 44.6758C95.6647 44.8451 95.7917 44.959 95.9609 45.0176C96.1302 45.0762 96.332 45.1055 96.5664 45.1055C96.7357 45.1055 96.8919 45.0957 97.0352 45.0762C97.1784 45.0566 97.2988 45.0371 97.3965 45.0176L97.4062 46.9512C97.1914 47.0228 96.9473 47.0814 96.6738 47.127C96.4069 47.1725 96.1042 47.1953 95.7656 47.1953C95.1862 47.1953 94.6784 47.0977 94.2422 46.9023C93.806 46.7005 93.4674 46.3783 93.2266 45.9355C92.9857 45.4863 92.8652 44.8939 92.8652 44.1582V33.8359ZM101.586 38.6016V47H99.0078V36.4336H101.439L101.586 38.6016ZM101.205 41.3359H100.414C100.414 40.6003 100.502 39.9232 100.678 39.3047C100.86 38.6862 101.127 38.1491 101.479 37.6934C101.83 37.2311 102.263 36.873 102.777 36.6191C103.298 36.3652 103.9 36.2383 104.584 36.2383C105.059 36.2383 105.495 36.3099 105.893 36.4531C106.29 36.5898 106.632 36.8079 106.918 37.1074C107.211 37.4004 107.436 37.7845 107.592 38.2598C107.748 38.7285 107.826 39.2917 107.826 39.9492V47H105.248V40.2129C105.248 39.7181 105.176 39.3307 105.033 39.0508C104.896 38.7708 104.698 38.5755 104.438 38.4648C104.177 38.3477 103.865 38.2891 103.5 38.2891C103.096 38.2891 102.748 38.3704 102.455 38.5332C102.169 38.6895 101.931 38.9076 101.742 39.1875C101.56 39.4674 101.423 39.7897 101.332 40.1543C101.247 40.5189 101.205 40.9128 101.205 41.3359ZM107.631 40.8574L106.566 41.0527C106.573 40.3887 106.664 39.7669 106.84 39.1875C107.016 38.6016 107.273 38.0905 107.611 37.6543C107.956 37.2116 108.383 36.8665 108.891 36.6191C109.405 36.3652 109.997 36.2383 110.668 36.2383C111.189 36.2383 111.658 36.3132 112.074 36.4629C112.497 36.6061 112.859 36.8372 113.158 37.1562C113.458 37.4688 113.686 37.8757 113.842 38.377C114.005 38.8783 114.086 39.4902 114.086 40.2129V47H111.488V40.2031C111.488 39.6888 111.417 39.2949 111.273 39.0215C111.137 38.748 110.938 38.5592 110.678 38.4551C110.417 38.3444 110.111 38.2891 109.76 38.2891C109.402 38.2891 109.089 38.3574 108.822 38.4941C108.562 38.6243 108.34 38.8066 108.158 39.041C107.982 39.2754 107.849 39.5488 107.758 39.8613C107.673 40.1673 107.631 40.4993 107.631 40.8574ZM121.146 47.1953C120.346 47.1953 119.626 47.0651 118.988 46.8047C118.35 46.5443 117.807 46.1829 117.357 45.7207C116.915 45.252 116.573 44.7083 116.332 44.0898C116.098 43.4648 115.98 42.7943 115.98 42.0781V41.6875C115.98 40.8737 116.098 40.1348 116.332 39.4707C116.566 38.8001 116.898 38.224 117.328 37.7422C117.758 37.2604 118.272 36.8893 118.871 36.6289C119.47 36.3685 120.131 36.2383 120.854 36.2383C121.602 36.2383 122.263 36.3652 122.836 36.6191C123.409 36.8665 123.887 37.2181 124.271 37.6738C124.656 38.1296 124.945 38.6764 125.141 39.3145C125.336 39.946 125.434 40.6458 125.434 41.4141V42.498H117.152V40.7207H122.895V40.5254C122.882 40.1152 122.803 39.7409 122.66 39.4023C122.517 39.0573 122.296 38.7839 121.996 38.582C121.697 38.3737 121.309 38.2695 120.834 38.2695C120.45 38.2695 120.115 38.3542 119.828 38.5234C119.548 38.6862 119.314 38.9206 119.125 39.2266C118.943 39.526 118.806 39.8841 118.715 40.3008C118.624 40.7174 118.578 41.1797 118.578 41.6875V42.0781C118.578 42.5208 118.637 42.931 118.754 43.3086C118.878 43.6862 119.057 44.015 119.291 44.2949C119.532 44.5684 119.818 44.7832 120.15 44.9395C120.489 45.0892 120.873 45.1641 121.303 45.1641C121.843 45.1641 122.331 45.0599 122.768 44.8516C123.21 44.6367 123.594 44.321 123.92 43.9043L125.219 45.252C124.997 45.5775 124.698 45.89 124.32 46.1895C123.949 46.4889 123.5 46.7331 122.973 46.9219C122.445 47.1042 121.837 47.1953 121.146 47.1953ZM129.691 38.6895V47H127.113V36.4336H129.535L129.691 38.6895ZM129.281 41.3359H128.52C128.526 40.5677 128.63 39.8711 128.832 39.2461C129.034 38.6211 129.317 38.084 129.682 37.6348C130.053 37.1855 130.492 36.8405 131 36.5996C131.508 36.3587 132.074 36.2383 132.699 36.2383C133.207 36.2383 133.666 36.3099 134.076 36.4531C134.486 36.5964 134.838 36.8242 135.131 37.1367C135.43 37.4492 135.658 37.8594 135.814 38.3672C135.977 38.8685 136.059 39.487 136.059 40.2227V47H133.461V40.2031C133.461 39.7214 133.389 39.3405 133.246 39.0605C133.109 38.7806 132.908 38.582 132.641 38.4648C132.38 38.3477 132.058 38.2891 131.674 38.2891C131.277 38.2891 130.928 38.3704 130.629 38.5332C130.336 38.6895 130.089 38.9076 129.887 39.1875C129.691 39.4674 129.542 39.7897 129.438 40.1543C129.333 40.5189 129.281 40.9128 129.281 41.3359ZM143.334 36.4336V38.2891H137.279V36.4336H143.334ZM138.9 33.8359H141.488V43.9531C141.488 44.2656 141.531 44.5065 141.615 44.6758C141.7 44.8451 141.827 44.959 141.996 45.0176C142.165 45.0762 142.367 45.1055 142.602 45.1055C142.771 45.1055 142.927 45.0957 143.07 45.0762C143.214 45.0566 143.334 45.0371 143.432 45.0176L143.441 46.9512C143.227 47.0228 142.982 47.0814 142.709 47.127C142.442 47.1725 142.139 47.1953 141.801 47.1953C141.221 47.1953 140.714 47.0977 140.277 46.9023C139.841 46.7005 139.503 46.3783 139.262 45.9355C139.021 45.4863 138.9 44.8939 138.9 44.1582V33.8359ZM152.602 38.6016V47H150.023V36.4336H152.455L152.602 38.6016ZM152.221 41.3359H151.43C151.43 40.6003 151.518 39.9232 151.693 39.3047C151.876 38.6862 152.143 38.1491 152.494 37.6934C152.846 37.2311 153.279 36.873 153.793 36.6191C154.314 36.3652 154.916 36.2383 155.6 36.2383C156.075 36.2383 156.511 36.3099 156.908 36.4531C157.305 36.5898 157.647 36.8079 157.934 37.1074C158.227 37.4004 158.451 37.7845 158.607 38.2598C158.764 38.7285 158.842 39.2917 158.842 39.9492V47H156.264V40.2129C156.264 39.7181 156.192 39.3307 156.049 39.0508C155.912 38.7708 155.714 38.5755 155.453 38.4648C155.193 38.3477 154.88 38.2891 154.516 38.2891C154.112 38.2891 153.764 38.3704 153.471 38.5332C153.184 38.6895 152.947 38.9076 152.758 39.1875C152.576 39.4674 152.439 39.7897 152.348 40.1543C152.263 40.5189 152.221 40.9128 152.221 41.3359ZM158.646 40.8574L157.582 41.0527C157.589 40.3887 157.68 39.7669 157.855 39.1875C158.031 38.6016 158.288 38.0905 158.627 37.6543C158.972 37.2116 159.398 36.8665 159.906 36.6191C160.421 36.3652 161.013 36.2383 161.684 36.2383C162.204 36.2383 162.673 36.3132 163.09 36.4629C163.513 36.6061 163.874 36.8372 164.174 37.1562C164.473 37.4688 164.701 37.8757 164.857 38.377C165.02 38.8783 165.102 39.4902 165.102 40.2129V47H162.504V40.2031C162.504 39.6888 162.432 39.2949 162.289 39.0215C162.152 38.748 161.954 38.5592 161.693 38.4551C161.433 38.3444 161.127 38.2891 160.775 38.2891C160.417 38.2891 160.105 38.3574 159.838 38.4941C159.577 38.6243 159.356 38.8066 159.174 39.041C158.998 39.2754 158.865 39.5488 158.773 39.8613C158.689 40.1673 158.646 40.4993 158.646 40.8574ZM166.957 41.8242V41.6191C166.957 40.8444 167.068 40.1315 167.289 39.4805C167.51 38.8229 167.833 38.2533 168.256 37.7715C168.679 37.2897 169.197 36.9154 169.809 36.6484C170.421 36.375 171.117 36.2383 171.898 36.2383C172.693 36.2383 173.396 36.375 174.008 36.6484C174.626 36.9154 175.147 37.2897 175.57 37.7715C175.993 38.2533 176.316 38.8229 176.537 39.4805C176.758 40.1315 176.869 40.8444 176.869 41.6191V41.8242C176.869 42.5924 176.758 43.3053 176.537 43.9629C176.316 44.6139 175.993 45.1836 175.57 45.6719C175.147 46.1536 174.63 46.528 174.018 46.7949C173.406 47.0618 172.706 47.1953 171.918 47.1953C171.137 47.1953 170.437 47.0618 169.818 46.7949C169.2 46.528 168.679 46.1536 168.256 45.6719C167.833 45.1836 167.51 44.6139 167.289 43.9629C167.068 43.3053 166.957 42.5924 166.957 41.8242ZM169.535 41.6191V41.8242C169.535 42.2865 169.581 42.7194 169.672 43.123C169.763 43.5267 169.903 43.8815 170.092 44.1875C170.281 44.4935 170.525 44.7344 170.824 44.9102C171.13 45.0794 171.495 45.1641 171.918 45.1641C172.335 45.1641 172.693 45.0794 172.992 44.9102C173.292 44.7344 173.536 44.4935 173.725 44.1875C173.92 43.8815 174.063 43.5267 174.154 43.123C174.245 42.7194 174.291 42.2865 174.291 41.8242V41.6191C174.291 41.1634 174.245 40.737 174.154 40.3398C174.063 39.9362 173.92 39.5814 173.725 39.2754C173.536 38.9629 173.288 38.7188 172.982 38.543C172.683 38.3607 172.322 38.2695 171.898 38.2695C171.482 38.2695 171.124 38.3607 170.824 38.543C170.525 38.7188 170.281 38.9629 170.092 39.2754C169.903 39.5814 169.763 39.9362 169.672 40.3398C169.581 40.737 169.535 41.1634 169.535 41.6191ZM185.082 44.7539V32H187.68V47H185.336L185.082 44.7539ZM178.295 41.8438V41.6387C178.295 40.8314 178.386 40.099 178.568 39.4414C178.757 38.7773 179.031 38.2077 179.389 37.7324C179.747 37.2572 180.18 36.8893 180.688 36.6289C181.202 36.3685 181.785 36.2383 182.436 36.2383C183.067 36.2383 183.617 36.3652 184.086 36.6191C184.561 36.873 184.965 37.2344 185.297 37.7031C185.635 38.1719 185.906 38.7285 186.107 39.373C186.309 40.0111 186.456 40.7142 186.547 41.4824V42.0391C186.456 42.7878 186.309 43.4746 186.107 44.0996C185.906 44.7246 185.635 45.2715 185.297 45.7402C184.965 46.2025 184.561 46.5605 184.086 46.8145C183.611 47.0684 183.054 47.1953 182.416 47.1953C181.771 47.1953 181.192 47.0618 180.678 46.7949C180.17 46.528 179.737 46.1536 179.379 45.6719C179.027 45.1901 178.757 44.6237 178.568 43.9727C178.386 43.3216 178.295 42.612 178.295 41.8438ZM180.883 41.6387V41.8438C180.883 42.2995 180.922 42.7259 181 43.123C181.078 43.5202 181.205 43.8717 181.381 44.1777C181.557 44.4772 181.781 44.7116 182.055 44.8809C182.335 45.0501 182.673 45.1348 183.07 45.1348C183.578 45.1348 183.995 45.0241 184.32 44.8027C184.652 44.5749 184.91 44.2656 185.092 43.875C185.274 43.4779 185.391 43.0319 185.443 42.5371V41.0039C185.417 40.6133 185.349 40.252 185.238 39.9199C185.134 39.5879 184.984 39.3014 184.789 39.0605C184.6 38.8197 184.366 38.6309 184.086 38.4941C183.806 38.3574 183.474 38.2891 183.09 38.2891C182.693 38.2891 182.354 38.377 182.074 38.5527C181.794 38.722 181.566 38.9596 181.391 39.2656C181.215 39.5716 181.085 39.9264 181 40.3301C180.922 40.7337 180.883 41.1699 180.883 41.6387ZM194.76 47.1953C193.959 47.1953 193.24 47.0651 192.602 46.8047C191.964 46.5443 191.42 46.1829 190.971 45.7207C190.528 45.252 190.186 44.7083 189.945 44.0898C189.711 43.4648 189.594 42.7943 189.594 42.0781V41.6875C189.594 40.8737 189.711 40.1348 189.945 39.4707C190.18 38.8001 190.512 38.224 190.941 37.7422C191.371 37.2604 191.885 36.8893 192.484 36.6289C193.083 36.3685 193.744 36.2383 194.467 36.2383C195.215 36.2383 195.876 36.3652 196.449 36.6191C197.022 36.8665 197.501 37.2181 197.885 37.6738C198.269 38.1296 198.559 38.6764 198.754 39.3145C198.949 39.946 199.047 40.6458 199.047 41.4141V42.498H190.766V40.7207H196.508V40.5254C196.495 40.1152 196.417 39.7409 196.273 39.4023C196.13 39.0573 195.909 38.7839 195.609 38.582C195.31 38.3737 194.923 38.2695 194.447 38.2695C194.063 38.2695 193.728 38.3542 193.441 38.5234C193.161 38.6862 192.927 38.9206 192.738 39.2266C192.556 39.526 192.419 39.8841 192.328 40.3008C192.237 40.7174 192.191 41.1797 192.191 41.6875V42.0781C192.191 42.5208 192.25 42.931 192.367 43.3086C192.491 43.6862 192.67 44.015 192.904 44.2949C193.145 44.5684 193.432 44.7832 193.764 44.9395C194.102 45.0892 194.486 45.1641 194.916 45.1641C195.456 45.1641 195.945 45.0599 196.381 44.8516C196.824 44.6367 197.208 44.321 197.533 43.9043L198.832 45.252C198.611 45.5775 198.311 45.89 197.934 46.1895C197.562 46.4889 197.113 46.7331 196.586 46.9219C196.059 47.1042 195.45 47.1953 194.76 47.1953ZM203.51 32V47H200.922V32H203.51ZM54.7402 61.5918V70H52.1621V59.4336H54.6035L54.7402 61.5918ZM57.9531 59.3652L57.9141 61.7676C57.7708 61.7415 57.6081 61.722 57.4258 61.709C57.25 61.696 57.084 61.6895 56.9277 61.6895C56.5306 61.6895 56.1823 61.7448 55.8828 61.8555C55.5833 61.9596 55.3327 62.1126 55.1309 62.3145C54.9355 62.5163 54.7858 62.7637 54.6816 63.0566C54.5775 63.3431 54.5189 63.6686 54.5059 64.0332L53.9492 63.9648C53.9492 63.2943 54.0176 62.6725 54.1543 62.0996C54.291 61.5267 54.4896 61.0254 54.75 60.5957C55.0104 60.166 55.3359 59.834 55.7266 59.5996C56.1237 59.3587 56.5794 59.2383 57.0938 59.2383C57.237 59.2383 57.39 59.2513 57.5527 59.2773C57.722 59.2969 57.8555 59.3262 57.9531 59.3652ZM62.1035 59.4336V70H59.5156V59.4336H62.1035ZM59.3398 56.6699C59.3398 56.2858 59.4701 55.9668 59.7305 55.7129C59.9974 55.459 60.3555 55.332 60.8047 55.332C61.2539 55.332 61.6087 55.459 61.8691 55.7129C62.1361 55.9668 62.2695 56.2858 62.2695 56.6699C62.2695 57.0475 62.1361 57.3633 61.8691 57.6172C61.6087 57.8711 61.2539 57.998 60.8047 57.998C60.3555 57.998 59.9974 57.8711 59.7305 57.6172C59.4701 57.3633 59.3398 57.0475 59.3398 56.6699ZM70.375 67.1094C70.375 66.888 70.3164 66.6895 70.1992 66.5137C70.082 66.3379 69.8607 66.1784 69.5352 66.0352C69.2161 65.8854 68.7474 65.7454 68.1289 65.6152C67.582 65.498 67.0775 65.3516 66.6152 65.1758C66.153 65 65.7559 64.7884 65.4238 64.541C65.0918 64.2871 64.8314 63.9909 64.6426 63.6523C64.4603 63.3073 64.3691 62.9102 64.3691 62.4609C64.3691 62.0247 64.4635 61.6146 64.6523 61.2305C64.8411 60.8398 65.1146 60.498 65.4727 60.2051C65.8307 59.9056 66.2669 59.6712 66.7812 59.502C67.2956 59.3262 67.875 59.2383 68.5195 59.2383C69.418 59.2383 70.1895 59.3848 70.834 59.6777C71.485 59.9707 71.9831 60.3743 72.3281 60.8887C72.6732 61.3965 72.8457 61.9694 72.8457 62.6074H70.2676C70.2676 62.3275 70.2025 62.0736 70.0723 61.8457C69.9486 61.6178 69.7565 61.4355 69.4961 61.2988C69.2357 61.1556 68.9069 61.084 68.5098 61.084C68.1517 61.084 67.849 61.1426 67.6016 61.2598C67.3607 61.377 67.1784 61.5299 67.0547 61.7188C66.931 61.9076 66.8691 62.1159 66.8691 62.3438C66.8691 62.513 66.9017 62.666 66.9668 62.8027C67.0384 62.9329 67.1523 63.0534 67.3086 63.1641C67.4648 63.2747 67.6764 63.3757 67.9434 63.4668C68.2168 63.5579 68.5521 63.6458 68.9492 63.7305C69.737 63.8867 70.4238 64.0951 71.0098 64.3555C71.6022 64.6094 72.0645 64.9479 72.3965 65.3711C72.7285 65.7943 72.8945 66.3346 72.8945 66.9922C72.8945 67.4609 72.7936 67.8906 72.5918 68.2812C72.39 68.6654 72.097 69.0007 71.7129 69.2871C71.3288 69.5736 70.8698 69.7982 70.3359 69.9609C69.8021 70.1172 69.1999 70.1953 68.5293 70.1953C67.5592 70.1953 66.7389 70.0228 66.0684 69.6777C65.3978 69.3262 64.89 68.8835 64.5449 68.3496C64.1999 67.8092 64.0273 67.2493 64.0273 66.6699H66.498C66.5176 67.0801 66.6283 67.4089 66.8301 67.6562C67.0319 67.9036 67.2858 68.0827 67.5918 68.1934C67.9043 68.2975 68.2331 68.3496 68.5781 68.3496C68.9688 68.3496 69.2975 68.2975 69.5645 68.1934C69.8314 68.0827 70.0332 67.9362 70.1699 67.7539C70.3066 67.5651 70.375 67.3503 70.375 67.1094ZM77.4355 54.9902V70H74.8574V54.9902H77.4355ZM84.0566 59.4336L79.457 64.5996L76.9668 67.1289L76.1465 65.127L78.0703 62.7051L80.9414 59.4336H84.0566ZM81.4199 70L78.1484 65.0781L79.8672 63.4082L84.4082 70H81.4199ZM92.9727 61.6016V70H90.3945V59.4336H92.8262L92.9727 61.6016ZM92.5918 64.3359H91.8008C91.8008 63.6003 91.8887 62.9232 92.0645 62.3047C92.2467 61.6862 92.5137 61.1491 92.8652 60.6934C93.2168 60.2311 93.6497 59.873 94.1641 59.6191C94.6849 59.3652 95.2871 59.2383 95.9707 59.2383C96.446 59.2383 96.8822 59.3099 97.2793 59.4531C97.6764 59.5898 98.0182 59.8079 98.3047 60.1074C98.5977 60.4004 98.8223 60.7845 98.9785 61.2598C99.1348 61.7285 99.2129 62.2917 99.2129 62.9492V70H96.6348V63.2129C96.6348 62.7181 96.5632 62.3307 96.4199 62.0508C96.2832 61.7708 96.0846 61.5755 95.8242 61.4648C95.5638 61.3477 95.2513 61.2891 94.8867 61.2891C94.4831 61.2891 94.1348 61.3704 93.8418 61.5332C93.5553 61.6895 93.3177 61.9076 93.1289 62.1875C92.9466 62.4674 92.8099 62.7897 92.7188 63.1543C92.6341 63.5189 92.5918 63.9128 92.5918 64.3359ZM99.0176 63.8574L97.9531 64.0527C97.9596 63.3887 98.0508 62.7669 98.2266 62.1875C98.4023 61.6016 98.6595 61.0905 98.998 60.6543C99.3431 60.2116 99.7695 59.8665 100.277 59.6191C100.792 59.3652 101.384 59.2383 102.055 59.2383C102.576 59.2383 103.044 59.3132 103.461 59.4629C103.884 59.6061 104.245 59.8372 104.545 60.1562C104.844 60.4688 105.072 60.8757 105.229 61.377C105.391 61.8783 105.473 62.4902 105.473 63.2129V70H102.875V63.2031C102.875 62.6888 102.803 62.2949 102.66 62.0215C102.523 61.748 102.325 61.5592 102.064 61.4551C101.804 61.3444 101.498 61.2891 101.146 61.2891C100.788 61.2891 100.476 61.3574 100.209 61.4941C99.9486 61.6243 99.7272 61.8066 99.5449 62.041C99.3691 62.2754 99.2357 62.5488 99.1445 62.8613C99.0599 63.1673 99.0176 63.4993 99.0176 63.8574ZM107.328 64.8242V64.6191C107.328 63.8444 107.439 63.1315 107.66 62.4805C107.882 61.8229 108.204 61.2533 108.627 60.7715C109.05 60.2897 109.568 59.9154 110.18 59.6484C110.792 59.375 111.488 59.2383 112.27 59.2383C113.064 59.2383 113.767 59.375 114.379 59.6484C114.997 59.9154 115.518 60.2897 115.941 60.7715C116.365 61.2533 116.687 61.8229 116.908 62.4805C117.13 63.1315 117.24 63.8444 117.24 64.6191V64.8242C117.24 65.5924 117.13 66.3053 116.908 66.9629C116.687 67.6139 116.365 68.1836 115.941 68.6719C115.518 69.1536 115.001 69.528 114.389 69.7949C113.777 70.0618 113.077 70.1953 112.289 70.1953C111.508 70.1953 110.808 70.0618 110.189 69.7949C109.571 69.528 109.05 69.1536 108.627 68.6719C108.204 68.1836 107.882 67.6139 107.66 66.9629C107.439 66.3053 107.328 65.5924 107.328 64.8242ZM109.906 64.6191V64.8242C109.906 65.2865 109.952 65.7194 110.043 66.123C110.134 66.5267 110.274 66.8815 110.463 67.1875C110.652 67.4935 110.896 67.7344 111.195 67.9102C111.501 68.0794 111.866 68.1641 112.289 68.1641C112.706 68.1641 113.064 68.0794 113.363 67.9102C113.663 67.7344 113.907 67.4935 114.096 67.1875C114.291 66.8815 114.434 66.5267 114.525 66.123C114.617 65.7194 114.662 65.2865 114.662 64.8242V64.6191C114.662 64.1634 114.617 63.737 114.525 63.3398C114.434 62.9362 114.291 62.5814 114.096 62.2754C113.907 61.9629 113.66 61.7188 113.354 61.543C113.054 61.3607 112.693 61.2695 112.27 61.2695C111.853 61.2695 111.495 61.3607 111.195 61.543C110.896 61.7188 110.652 61.9629 110.463 62.2754C110.274 62.5814 110.134 62.9362 110.043 63.3398C109.952 63.737 109.906 64.1634 109.906 64.6191ZM125.453 67.7539V55H128.051V70H125.707L125.453 67.7539ZM118.666 64.8438V64.6387C118.666 63.8314 118.757 63.099 118.939 62.4414C119.128 61.7773 119.402 61.2077 119.76 60.7324C120.118 60.2572 120.551 59.8893 121.059 59.6289C121.573 59.3685 122.156 59.2383 122.807 59.2383C123.438 59.2383 123.988 59.3652 124.457 59.6191C124.932 59.873 125.336 60.2344 125.668 60.7031C126.007 61.1719 126.277 61.7285 126.479 62.373C126.68 63.0111 126.827 63.7142 126.918 64.4824V65.0391C126.827 65.7878 126.68 66.4746 126.479 67.0996C126.277 67.7246 126.007 68.2715 125.668 68.7402C125.336 69.2025 124.932 69.5605 124.457 69.8145C123.982 70.0684 123.425 70.1953 122.787 70.1953C122.143 70.1953 121.563 70.0618 121.049 69.7949C120.541 69.528 120.108 69.1536 119.75 68.6719C119.398 68.1901 119.128 67.6237 118.939 66.9727C118.757 66.3216 118.666 65.612 118.666 64.8438ZM121.254 64.6387V64.8438C121.254 65.2995 121.293 65.7259 121.371 66.123C121.449 66.5202 121.576 66.8717 121.752 67.1777C121.928 67.4772 122.152 67.7116 122.426 67.8809C122.706 68.0501 123.044 68.1348 123.441 68.1348C123.949 68.1348 124.366 68.0241 124.691 67.8027C125.023 67.5749 125.281 67.2656 125.463 66.875C125.645 66.4779 125.762 66.0319 125.814 65.5371V64.0039C125.788 63.6133 125.72 63.252 125.609 62.9199C125.505 62.5879 125.355 62.3014 125.16 62.0605C124.971 61.8197 124.737 61.6309 124.457 61.4941C124.177 61.3574 123.845 61.2891 123.461 61.2891C123.064 61.2891 122.725 61.377 122.445 61.5527C122.165 61.722 121.938 61.9596 121.762 62.2656C121.586 62.5716 121.456 62.9264 121.371 63.3301C121.293 63.7337 121.254 64.1699 121.254 64.6387ZM135.131 70.1953C134.33 70.1953 133.611 70.0651 132.973 69.8047C132.335 69.5443 131.791 69.1829 131.342 68.7207C130.899 68.252 130.557 67.7083 130.316 67.0898C130.082 66.4648 129.965 65.7943 129.965 65.0781V64.6875C129.965 63.8737 130.082 63.1348 130.316 62.4707C130.551 61.8001 130.883 61.224 131.312 60.7422C131.742 60.2604 132.257 59.8893 132.855 59.6289C133.454 59.3685 134.115 59.2383 134.838 59.2383C135.587 59.2383 136.247 59.3652 136.82 59.6191C137.393 59.8665 137.872 60.2181 138.256 60.6738C138.64 61.1296 138.93 61.6764 139.125 62.3145C139.32 62.946 139.418 63.6458 139.418 64.4141V65.498H131.137V63.7207H136.879V63.5254C136.866 63.1152 136.788 62.7409 136.645 62.4023C136.501 62.0573 136.28 61.7839 135.98 61.582C135.681 61.3737 135.294 61.2695 134.818 61.2695C134.434 61.2695 134.099 61.3542 133.812 61.5234C133.533 61.6862 133.298 61.9206 133.109 62.2266C132.927 62.526 132.79 62.8841 132.699 63.3008C132.608 63.7174 132.562 64.1797 132.562 64.6875V65.0781C132.562 65.5208 132.621 65.931 132.738 66.3086C132.862 66.6862 133.041 67.015 133.275 67.2949C133.516 67.5684 133.803 67.7832 134.135 67.9395C134.473 68.0892 134.857 68.1641 135.287 68.1641C135.827 68.1641 136.316 68.0599 136.752 67.8516C137.195 67.6367 137.579 67.321 137.904 66.9043L139.203 68.252C138.982 68.5775 138.682 68.89 138.305 69.1895C137.934 69.4889 137.484 69.7331 136.957 69.9219C136.43 70.1042 135.821 70.1953 135.131 70.1953ZM143.881 55V70H141.293V55H143.881Z" fill="black"/>
<path d="M220 52H234" stroke="black" stroke-width="2" stroke-linecap="round" stroke-linejoin="round"/>
<path d="M227 45L234 52L227 59" stroke="black" stroke-width="2" stroke-linecap="round" stroke-linejoin="round"/>
<path d="M355.633 54.8086C355.633 54.5352 355.59 54.291 355.506 54.0762C355.428 53.8548 355.281 53.6562 355.066 53.4805C354.858 53.2982 354.562 53.1224 354.178 52.9531C353.8 52.7773 353.312 52.5951 352.713 52.4062C352.049 52.1979 351.43 51.9635 350.857 51.7031C350.285 51.4427 349.78 51.14 349.344 50.7949C348.914 50.4499 348.579 50.0527 348.338 49.6035C348.097 49.1478 347.977 48.6204 347.977 48.0215C347.977 47.4355 348.1 46.9017 348.348 46.4199C348.602 45.9382 348.96 45.5247 349.422 45.1797C349.884 44.8281 350.428 44.5579 351.053 44.3691C351.684 44.1803 352.381 44.0859 353.143 44.0859C354.197 44.0859 355.109 44.278 355.877 44.6621C356.652 45.0462 357.251 45.5671 357.674 46.2246C358.097 46.8822 358.309 47.6211 358.309 48.4414H355.633C355.633 47.9987 355.538 47.6081 355.35 47.2695C355.167 46.931 354.887 46.6641 354.51 46.4688C354.139 46.2734 353.67 46.1758 353.104 46.1758C352.557 46.1758 352.101 46.2572 351.736 46.4199C351.378 46.5827 351.108 46.804 350.926 47.084C350.75 47.3639 350.662 47.6764 350.662 48.0215C350.662 48.2819 350.724 48.5163 350.848 48.7246C350.971 48.9264 351.157 49.1185 351.404 49.3008C351.652 49.4766 351.958 49.6426 352.322 49.7988C352.693 49.9486 353.123 50.0983 353.611 50.248C354.393 50.4824 355.076 50.7428 355.662 51.0293C356.255 51.3158 356.746 51.6413 357.137 52.0059C357.534 52.3704 357.83 52.7806 358.025 53.2363C358.227 53.6921 358.328 54.2096 358.328 54.7891C358.328 55.401 358.208 55.9479 357.967 56.4297C357.726 56.9115 357.381 57.3216 356.932 57.6602C356.482 57.9987 355.942 58.2559 355.311 58.4316C354.686 58.6074 353.986 58.6953 353.211 58.6953C352.521 58.6953 351.837 58.6042 351.16 58.4219C350.49 58.2331 349.881 57.9531 349.334 57.582C348.787 57.2044 348.351 56.7292 348.025 56.1562C347.7 55.5768 347.537 54.8997 347.537 54.125H350.232C350.232 54.5742 350.304 54.9583 350.447 55.2773C350.597 55.5898 350.805 55.847 351.072 56.0488C351.346 56.2441 351.665 56.3874 352.029 56.4785C352.394 56.5697 352.788 56.6152 353.211 56.6152C353.758 56.6152 354.207 56.5404 354.559 56.3906C354.917 56.2344 355.184 56.0195 355.359 55.7461C355.542 55.4727 355.633 55.1602 355.633 54.8086ZM364.949 58.6953C364.148 58.6953 363.429 58.5651 362.791 58.3047C362.153 58.0443 361.609 57.6829 361.16 57.2207C360.717 56.752 360.376 56.2083 360.135 55.5898C359.9 54.9648 359.783 54.2943 359.783 53.5781V53.1875C359.783 52.3737 359.9 51.6348 360.135 50.9707C360.369 50.3001 360.701 49.724 361.131 49.2422C361.561 48.7604 362.075 48.3893 362.674 48.1289C363.273 47.8685 363.934 47.7383 364.656 47.7383C365.405 47.7383 366.066 47.8652 366.639 48.1191C367.212 48.3665 367.69 48.7181 368.074 49.1738C368.458 49.6296 368.748 50.1764 368.943 50.8145C369.139 51.446 369.236 52.1458 369.236 52.9141V53.998H360.955V52.2207H366.697V52.0254C366.684 51.6152 366.606 51.2409 366.463 50.9023C366.32 50.5573 366.098 50.2839 365.799 50.082C365.499 49.8737 365.112 49.7695 364.637 49.7695C364.253 49.7695 363.917 49.8542 363.631 50.0234C363.351 50.1862 363.117 50.4206 362.928 50.7266C362.745 51.026 362.609 51.3841 362.518 51.8008C362.426 52.2174 362.381 52.6797 362.381 53.1875V53.5781C362.381 54.0208 362.439 54.431 362.557 54.8086C362.68 55.1862 362.859 55.515 363.094 55.7949C363.335 56.0684 363.621 56.2832 363.953 56.4395C364.292 56.5892 364.676 56.6641 365.105 56.6641C365.646 56.6641 366.134 56.5599 366.57 56.3516C367.013 56.1367 367.397 55.821 367.723 55.4043L369.021 56.752C368.8 57.0775 368.501 57.39 368.123 57.6895C367.752 57.9889 367.303 58.2331 366.775 58.4219C366.248 58.6042 365.639 58.6953 364.949 58.6953ZM377.684 47.9336H380.027V58.1777C380.027 59.1348 379.819 59.9453 379.402 60.6094C378.992 61.2799 378.416 61.7878 377.674 62.1328C376.932 62.4844 376.069 62.6602 375.086 62.6602C374.663 62.6602 374.204 62.6016 373.709 62.4844C373.221 62.3672 372.749 62.1816 372.293 61.9277C371.844 61.6803 371.469 61.3581 371.17 60.9609L372.332 59.4375C372.684 59.8477 373.081 60.1569 373.523 60.3652C373.966 60.5801 374.445 60.6875 374.959 60.6875C375.48 60.6875 375.923 60.5898 376.287 60.3945C376.658 60.2057 376.941 59.9258 377.137 59.5547C377.339 59.1901 377.439 58.7409 377.439 58.207V50.3457L377.684 47.9336ZM370.545 53.3438V53.1387C370.545 52.3314 370.643 51.599 370.838 50.9414C371.033 50.2773 371.313 49.7077 371.678 49.2324C372.049 48.7572 372.495 48.3893 373.016 48.1289C373.543 47.8685 374.135 47.7383 374.793 47.7383C375.49 47.7383 376.076 47.8652 376.551 48.1191C377.033 48.373 377.43 48.7344 377.742 49.2031C378.061 49.6719 378.309 50.2285 378.484 50.873C378.667 51.5111 378.807 52.2142 378.904 52.9824V53.5391C378.813 54.2878 378.667 54.9746 378.465 55.5996C378.27 56.2246 378.009 56.7715 377.684 57.2402C377.358 57.7025 376.954 58.0605 376.473 58.3145C375.991 58.5684 375.424 58.6953 374.773 58.6953C374.122 58.6953 373.536 58.5618 373.016 58.2949C372.495 58.028 372.049 57.6536 371.678 57.1719C371.313 56.6901 371.033 56.1237 370.838 55.4727C370.643 54.8216 370.545 54.112 370.545 53.3438ZM373.123 53.1387V53.3438C373.123 53.7995 373.169 54.2259 373.26 54.623C373.351 55.0202 373.491 55.3717 373.68 55.6777C373.868 55.9772 374.106 56.2116 374.393 56.3809C374.679 56.5501 375.021 56.6348 375.418 56.6348C375.952 56.6348 376.388 56.5241 376.727 56.3027C377.072 56.0749 377.332 55.7656 377.508 55.375C377.69 54.9779 377.807 54.5319 377.859 54.0371V52.5039C377.827 52.1133 377.755 51.752 377.645 51.4199C377.54 51.0879 377.394 50.8014 377.205 50.5605C377.016 50.3197 376.775 50.1309 376.482 49.9941C376.189 49.8574 375.841 49.7891 375.438 49.7891C375.047 49.7891 374.705 49.877 374.412 50.0527C374.119 50.222 373.878 50.4596 373.689 50.7656C373.501 51.0716 373.357 51.4264 373.26 51.8301C373.169 52.2337 373.123 52.6699 373.123 53.1387ZM393.836 44.2422V58.5H391.248V47.2598L387.82 48.3926V46.3027L393.543 44.2422H393.836Z" fill="black"/>
<path d="M510.299 54.8086C510.299 54.5352 510.257 54.291 510.172 54.0762C510.094 53.8548 509.947 53.6562 509.732 53.4805C509.524 53.2982 509.228 53.1224 508.844 52.9531C508.466 52.7773 507.978 52.5951 507.379 52.4062C506.715 52.1979 506.096 51.9635 505.523 51.7031C504.951 51.4427 504.446 51.14 504.01 50.7949C503.58 50.4499 503.245 50.0527 503.004 49.6035C502.763 49.1478 502.643 48.6204 502.643 48.0215C502.643 47.4355 502.766 46.9017 503.014 46.4199C503.268 45.9382 503.626 45.5247 504.088 45.1797C504.55 44.8281 505.094 44.5579 505.719 44.3691C506.35 44.1803 507.047 44.0859 507.809 44.0859C508.863 44.0859 509.775 44.278 510.543 44.6621C511.318 45.0462 511.917 45.5671 512.34 46.2246C512.763 46.8822 512.975 47.6211 512.975 48.4414H510.299C510.299 47.9987 510.204 47.6081 510.016 47.2695C509.833 46.931 509.553 46.6641 509.176 46.4688C508.805 46.2734 508.336 46.1758 507.77 46.1758C507.223 46.1758 506.767 46.2572 506.402 46.4199C506.044 46.5827 505.774 46.804 505.592 47.084C505.416 47.3639 505.328 47.6764 505.328 48.0215C505.328 48.2819 505.39 48.5163 505.514 48.7246C505.637 48.9264 505.823 49.1185 506.07 49.3008C506.318 49.4766 506.624 49.6426 506.988 49.7988C507.359 49.9486 507.789 50.0983 508.277 50.248C509.059 50.4824 509.742 50.7428 510.328 51.0293C510.921 51.3158 511.412 51.6413 511.803 52.0059C512.2 52.3704 512.496 52.7806 512.691 53.2363C512.893 53.6921 512.994 54.2096 512.994 54.7891C512.994 55.401 512.874 55.9479 512.633 56.4297C512.392 56.9115 512.047 57.3216 511.598 57.6602C511.148 57.9987 510.608 58.2559 509.977 58.4316C509.352 58.6074 508.652 58.6953 507.877 58.6953C507.187 58.6953 506.503 58.6042 505.826 58.4219C505.156 58.2331 504.547 57.9531 504 57.582C503.453 57.2044 503.017 56.7292 502.691 56.1562C502.366 55.5768 502.203 54.8997 502.203 54.125H504.898C504.898 54.5742 504.97 54.9583 505.113 55.2773C505.263 55.5898 505.471 55.847 505.738 56.0488C506.012 56.2441 506.331 56.3874 506.695 56.4785C507.06 56.5697 507.454 56.6152 507.877 56.6152C508.424 56.6152 508.873 56.5404 509.225 56.3906C509.583 56.2344 509.85 56.0195 510.025 55.7461C510.208 55.4727 510.299 55.1602 510.299 54.8086ZM519.615 58.6953C518.814 58.6953 518.095 58.5651 517.457 58.3047C516.819 58.0443 516.275 57.6829 515.826 57.2207C515.383 56.752 515.042 56.2083 514.801 55.5898C514.566 54.9648 514.449 54.2943 514.449 53.5781V53.1875C514.449 52.3737 514.566 51.6348 514.801 50.9707C515.035 50.3001 515.367 49.724 515.797 49.2422C516.227 48.7604 516.741 48.3893 517.34 48.1289C517.939 47.8685 518.6 47.7383 519.322 47.7383C520.071 47.7383 520.732 47.8652 521.305 48.1191C521.878 48.3665 522.356 48.7181 522.74 49.1738C523.124 49.6296 523.414 50.1764 523.609 50.8145C523.805 51.446 523.902 52.1458 523.902 52.9141V53.998H515.621V52.2207H521.363V52.0254C521.35 51.6152 521.272 51.2409 521.129 50.9023C520.986 50.5573 520.764 50.2839 520.465 50.082C520.165 49.8737 519.778 49.7695 519.303 49.7695C518.919 49.7695 518.583 49.8542 518.297 50.0234C518.017 50.1862 517.783 50.4206 517.594 50.7266C517.411 51.026 517.275 51.3841 517.184 51.8008C517.092 52.2174 517.047 52.6797 517.047 53.1875V53.5781C517.047 54.0208 517.105 54.431 517.223 54.8086C517.346 55.1862 517.525 55.515 517.76 55.7949C518.001 56.0684 518.287 56.2832 518.619 56.4395C518.958 56.5892 519.342 56.6641 519.771 56.6641C520.312 56.6641 520.8 56.5599 521.236 56.3516C521.679 56.1367 522.063 55.821 522.389 55.4043L523.688 56.752C523.466 57.0775 523.167 57.39 522.789 57.6895C522.418 57.9889 521.969 58.2331 521.441 58.4219C520.914 58.6042 520.305 58.6953 519.615 58.6953ZM532.35 47.9336H534.693V58.1777C534.693 59.1348 534.485 59.9453 534.068 60.6094C533.658 61.2799 533.082 61.7878 532.34 62.1328C531.598 62.4844 530.735 62.6602 529.752 62.6602C529.329 62.6602 528.87 62.6016 528.375 62.4844C527.887 62.3672 527.415 62.1816 526.959 61.9277C526.51 61.6803 526.135 61.3581 525.836 60.9609L526.998 59.4375C527.35 59.8477 527.747 60.1569 528.189 60.3652C528.632 60.5801 529.111 60.6875 529.625 60.6875C530.146 60.6875 530.589 60.5898 530.953 60.3945C531.324 60.2057 531.607 59.9258 531.803 59.5547C532.005 59.1901 532.105 58.7409 532.105 58.207V50.3457L532.35 47.9336ZM525.211 53.3438V53.1387C525.211 52.3314 525.309 51.599 525.504 50.9414C525.699 50.2773 525.979 49.7077 526.344 49.2324C526.715 48.7572 527.161 48.3893 527.682 48.1289C528.209 47.8685 528.801 47.7383 529.459 47.7383C530.156 47.7383 530.742 47.8652 531.217 48.1191C531.699 48.373 532.096 48.7344 532.408 49.2031C532.727 49.6719 532.975 50.2285 533.15 50.873C533.333 51.5111 533.473 52.2142 533.57 52.9824V53.5391C533.479 54.2878 533.333 54.9746 533.131 55.5996C532.936 56.2246 532.675 56.7715 532.35 57.2402C532.024 57.7025 531.62 58.0605 531.139 58.3145C530.657 58.5684 530.09 58.6953 529.439 58.6953C528.788 58.6953 528.202 58.5618 527.682 58.2949C527.161 58.028 526.715 57.6536 526.344 57.1719C525.979 56.6901 525.699 56.1237 525.504 55.4727C525.309 54.8216 525.211 54.112 525.211 53.3438ZM527.789 53.1387V53.3438C527.789 53.7995 527.835 54.2259 527.926 54.623C528.017 55.0202 528.157 55.3717 528.346 55.6777C528.535 55.9772 528.772 56.2116 529.059 56.3809C529.345 56.5501 529.687 56.6348 530.084 56.6348C530.618 56.6348 531.054 56.5241 531.393 56.3027C531.738 56.0749 531.998 55.7656 532.174 55.375C532.356 54.9779 532.473 54.5319 532.525 54.0371V52.5039C532.493 52.1133 532.421 51.752 532.311 51.4199C532.206 51.0879 532.06 50.8014 531.871 50.5605C531.682 50.3197 531.441 50.1309 531.148 49.9941C530.855 49.8574 530.507 49.7891 530.104 49.7891C529.713 49.7891 529.371 49.877 529.078 50.0527C528.785 50.222 528.544 50.4596 528.355 50.7656C528.167 51.0716 528.023 51.4264 527.926 51.8301C527.835 52.2337 527.789 52.6699 527.789 53.1387ZM551.49 56.4688V58.5H541.861V56.7617L546.48 51.7715C546.962 51.2246 547.343 50.7493 547.623 50.3457C547.903 49.9421 548.102 49.5775 548.219 49.252C548.342 48.9199 548.404 48.6042 548.404 48.3047C548.404 47.8685 548.326 47.4876 548.17 47.1621C548.014 46.8301 547.786 46.5729 547.486 46.3906C547.193 46.2083 546.832 46.1172 546.402 46.1172C545.927 46.1172 545.52 46.2279 545.182 46.4492C544.85 46.6641 544.596 46.9635 544.42 47.3477C544.251 47.7318 544.166 48.1712 544.166 48.666H541.578C541.578 47.8262 541.773 47.0612 542.164 46.3711C542.555 45.6745 543.115 45.1178 543.844 44.7012C544.573 44.2845 545.439 44.0762 546.441 44.0762C547.418 44.0762 548.245 44.2389 548.922 44.5645C549.599 44.8835 550.113 45.3392 550.465 45.9316C550.816 46.5241 550.992 47.2305 550.992 48.0508C550.992 48.5065 550.917 48.9557 550.768 49.3984C550.618 49.8411 550.406 50.2806 550.133 50.7168C549.866 51.1465 549.547 51.5827 549.176 52.0254C548.805 52.4681 548.391 52.9206 547.936 53.3828L545.162 56.4688H551.49Z" fill="black"/>
<path d="M664.967 54.8086C664.967 54.5352 664.924 54.291 664.84 54.0762C664.762 53.8548 664.615 53.6562 664.4 53.4805C664.192 53.2982 663.896 53.1224 663.512 52.9531C663.134 52.7773 662.646 52.5951 662.047 52.4062C661.383 52.1979 660.764 51.9635 660.191 51.7031C659.618 51.4427 659.114 51.14 658.678 50.7949C658.248 50.4499 657.913 50.0527 657.672 49.6035C657.431 49.1478 657.311 48.6204 657.311 48.0215C657.311 47.4355 657.434 46.9017 657.682 46.4199C657.936 45.9382 658.294 45.5247 658.756 45.1797C659.218 44.8281 659.762 44.5579 660.387 44.3691C661.018 44.1803 661.715 44.0859 662.477 44.0859C663.531 44.0859 664.443 44.278 665.211 44.6621C665.986 45.0462 666.585 45.5671 667.008 46.2246C667.431 46.8822 667.643 47.6211 667.643 48.4414H664.967C664.967 47.9987 664.872 47.6081 664.684 47.2695C664.501 46.931 664.221 46.6641 663.844 46.4688C663.473 46.2734 663.004 46.1758 662.438 46.1758C661.891 46.1758 661.435 46.2572 661.07 46.4199C660.712 46.5827 660.442 46.804 660.26 47.084C660.084 47.3639 659.996 47.6764 659.996 48.0215C659.996 48.2819 660.058 48.5163 660.182 48.7246C660.305 48.9264 660.491 49.1185 660.738 49.3008C660.986 49.4766 661.292 49.6426 661.656 49.7988C662.027 49.9486 662.457 50.0983 662.945 50.248C663.727 50.4824 664.41 50.7428 664.996 51.0293C665.589 51.3158 666.08 51.6413 666.471 52.0059C666.868 52.3704 667.164 52.7806 667.359 53.2363C667.561 53.6921 667.662 54.2096 667.662 54.7891C667.662 55.401 667.542 55.9479 667.301 56.4297C667.06 56.9115 666.715 57.3216 666.266 57.6602C665.816 57.9987 665.276 58.2559 664.645 58.4316C664.02 58.6074 663.32 58.6953 662.545 58.6953C661.855 58.6953 661.171 58.6042 660.494 58.4219C659.824 58.2331 659.215 57.9531 658.668 57.582C658.121 57.2044 657.685 56.7292 657.359 56.1562C657.034 55.5768 656.871 54.8997 656.871 54.125H659.566C659.566 54.5742 659.638 54.9583 659.781 55.2773C659.931 55.5898 660.139 55.847 660.406 56.0488C660.68 56.2441 660.999 56.3874 661.363 56.4785C661.728 56.5697 662.122 56.6152 662.545 56.6152C663.092 56.6152 663.541 56.5404 663.893 56.3906C664.251 56.2344 664.518 56.0195 664.693 55.7461C664.876 55.4727 664.967 55.1602 664.967 54.8086ZM674.283 58.6953C673.482 58.6953 672.763 58.5651 672.125 58.3047C671.487 58.0443 670.943 57.6829 670.494 57.2207C670.051 56.752 669.71 56.2083 669.469 55.5898C669.234 54.9648 669.117 54.2943 669.117 53.5781V53.1875C669.117 52.3737 669.234 51.6348 669.469 50.9707C669.703 50.3001 670.035 49.724 670.465 49.2422C670.895 48.7604 671.409 48.3893 672.008 48.1289C672.607 47.8685 673.268 47.7383 673.99 47.7383C674.739 47.7383 675.4 47.8652 675.973 48.1191C676.546 48.3665 677.024 48.7181 677.408 49.1738C677.792 49.6296 678.082 50.1764 678.277 50.8145C678.473 51.446 678.57 52.1458 678.57 52.9141V53.998H670.289V52.2207H676.031V52.0254C676.018 51.6152 675.94 51.2409 675.797 50.9023C675.654 50.5573 675.432 50.2839 675.133 50.082C674.833 49.8737 674.446 49.7695 673.971 49.7695C673.587 49.7695 673.251 49.8542 672.965 50.0234C672.685 50.1862 672.451 50.4206 672.262 50.7266C672.079 51.026 671.943 51.3841 671.852 51.8008C671.76 52.2174 671.715 52.6797 671.715 53.1875V53.5781C671.715 54.0208 671.773 54.431 671.891 54.8086C672.014 55.1862 672.193 55.515 672.428 55.7949C672.669 56.0684 672.955 56.2832 673.287 56.4395C673.626 56.5892 674.01 56.6641 674.439 56.6641C674.98 56.6641 675.468 56.5599 675.904 56.3516C676.347 56.1367 676.731 55.821 677.057 55.4043L678.355 56.752C678.134 57.0775 677.835 57.39 677.457 57.6895C677.086 57.9889 676.637 58.2331 676.109 58.4219C675.582 58.6042 674.973 58.6953 674.283 58.6953ZM687.018 47.9336H689.361V58.1777C689.361 59.1348 689.153 59.9453 688.736 60.6094C688.326 61.2799 687.75 61.7878 687.008 62.1328C686.266 62.4844 685.403 62.6602 684.42 62.6602C683.997 62.6602 683.538 62.6016 683.043 62.4844C682.555 62.3672 682.083 62.1816 681.627 61.9277C681.178 61.6803 680.803 61.3581 680.504 60.9609L681.666 59.4375C682.018 59.8477 682.415 60.1569 682.857 60.3652C683.3 60.5801 683.779 60.6875 684.293 60.6875C684.814 60.6875 685.257 60.5898 685.621 60.3945C685.992 60.2057 686.275 59.9258 686.471 59.5547C686.673 59.1901 686.773 58.7409 686.773 58.207V50.3457L687.018 47.9336ZM679.879 53.3438V53.1387C679.879 52.3314 679.977 51.599 680.172 50.9414C680.367 50.2773 680.647 49.7077 681.012 49.2324C681.383 48.7572 681.829 48.3893 682.35 48.1289C682.877 47.8685 683.469 47.7383 684.127 47.7383C684.824 47.7383 685.41 47.8652 685.885 48.1191C686.367 48.373 686.764 48.7344 687.076 49.2031C687.395 49.6719 687.643 50.2285 687.818 50.873C688.001 51.5111 688.141 52.2142 688.238 52.9824V53.5391C688.147 54.2878 688.001 54.9746 687.799 55.5996C687.604 56.2246 687.343 56.7715 687.018 57.2402C686.692 57.7025 686.288 58.0605 685.807 58.3145C685.325 58.5684 684.758 58.6953 684.107 58.6953C683.456 58.6953 682.87 58.5618 682.35 58.2949C681.829 58.028 681.383 57.6536 681.012 57.1719C680.647 56.6901 680.367 56.1237 680.172 55.4727C679.977 54.8216 679.879 54.112 679.879 53.3438ZM682.457 53.1387V53.3438C682.457 53.7995 682.503 54.2259 682.594 54.623C682.685 55.0202 682.825 55.3717 683.014 55.6777C683.202 55.9772 683.44 56.2116 683.727 56.3809C684.013 56.5501 684.355 56.6348 684.752 56.6348C685.286 56.6348 685.722 56.5241 686.061 56.3027C686.406 56.0749 686.666 55.7656 686.842 55.375C687.024 54.9779 687.141 54.5319 687.193 54.0371V52.5039C687.161 52.1133 687.089 51.752 686.979 51.4199C686.874 51.0879 686.728 50.8014 686.539 50.5605C686.35 50.3197 686.109 50.1309 685.816 49.9941C685.523 49.8574 685.175 49.7891 684.771 49.7891C684.381 49.7891 684.039 49.877 683.746 50.0527C683.453 50.222 683.212 50.4596 683.023 50.7656C682.835 51.0716 682.691 51.4264 682.594 51.8301C682.503 52.2337 682.457 52.6699 682.457 53.1387ZM699.195 50.1895V58.5H696.617V47.9336H699.039L699.195 50.1895ZM698.785 52.8359H698.023C698.03 52.0677 698.134 51.3711 698.336 50.7461C698.538 50.1211 698.821 49.584 699.186 49.1348C699.557 48.6855 699.996 48.3405 700.504 48.0996C701.012 47.8587 701.578 47.7383 702.203 47.7383C702.711 47.7383 703.17 47.8099 703.58 47.9531C703.99 48.0964 704.342 48.3242 704.635 48.6367C704.934 48.9492 705.162 49.3594 705.318 49.8672C705.481 50.3685 705.562 50.987 705.562 51.7227V58.5H702.965V51.7031C702.965 51.2214 702.893 50.8405 702.75 50.5605C702.613 50.2806 702.411 50.082 702.145 49.9648C701.884 49.8477 701.562 49.7891 701.178 49.7891C700.781 49.7891 700.432 49.8704 700.133 50.0332C699.84 50.1895 699.592 50.4076 699.391 50.6875C699.195 50.9674 699.046 51.2897 698.941 51.6543C698.837 52.0189 698.785 52.4128 698.785 52.8359Z" fill="black"/>
</g>
<path d="M754 103H0V105H754V103Z" fill="white" mask="url(#path-2-inside-1_603_105)"/>
</g>
<g clip-path="url(#clip3_603_105)">
<mask id="path-10-inside-2_603_105" fill="white">
<path d="M0 104H754V185H0V104Z"/>
</mask>
<path d="M128.299 147.309C128.299 147.035 128.257 146.791 128.172 146.576C128.094 146.355 127.947 146.156 127.732 145.98C127.524 145.798 127.228 145.622 126.844 145.453C126.466 145.277 125.978 145.095 125.379 144.906C124.715 144.698 124.096 144.464 123.523 144.203C122.951 143.943 122.446 143.64 122.01 143.295C121.58 142.95 121.245 142.553 121.004 142.104C120.763 141.648 120.643 141.12 120.643 140.521C120.643 139.936 120.766 139.402 121.014 138.92C121.268 138.438 121.626 138.025 122.088 137.68C122.55 137.328 123.094 137.058 123.719 136.869C124.35 136.68 125.047 136.586 125.809 136.586C126.863 136.586 127.775 136.778 128.543 137.162C129.318 137.546 129.917 138.067 130.34 138.725C130.763 139.382 130.975 140.121 130.975 140.941H128.299C128.299 140.499 128.204 140.108 128.016 139.77C127.833 139.431 127.553 139.164 127.176 138.969C126.805 138.773 126.336 138.676 125.77 138.676C125.223 138.676 124.767 138.757 124.402 138.92C124.044 139.083 123.774 139.304 123.592 139.584C123.416 139.864 123.328 140.176 123.328 140.521C123.328 140.782 123.39 141.016 123.514 141.225C123.637 141.426 123.823 141.618 124.07 141.801C124.318 141.977 124.624 142.143 124.988 142.299C125.359 142.449 125.789 142.598 126.277 142.748C127.059 142.982 127.742 143.243 128.328 143.529C128.921 143.816 129.412 144.141 129.803 144.506C130.2 144.87 130.496 145.281 130.691 145.736C130.893 146.192 130.994 146.71 130.994 147.289C130.994 147.901 130.874 148.448 130.633 148.93C130.392 149.411 130.047 149.822 129.598 150.16C129.148 150.499 128.608 150.756 127.977 150.932C127.352 151.107 126.652 151.195 125.877 151.195C125.187 151.195 124.503 151.104 123.826 150.922C123.156 150.733 122.547 150.453 122 150.082C121.453 149.704 121.017 149.229 120.691 148.656C120.366 148.077 120.203 147.4 120.203 146.625H122.898C122.898 147.074 122.97 147.458 123.113 147.777C123.263 148.09 123.471 148.347 123.738 148.549C124.012 148.744 124.331 148.887 124.695 148.979C125.06 149.07 125.454 149.115 125.877 149.115C126.424 149.115 126.873 149.04 127.225 148.891C127.583 148.734 127.85 148.52 128.025 148.246C128.208 147.973 128.299 147.66 128.299 147.309ZM137.615 151.195C136.814 151.195 136.095 151.065 135.457 150.805C134.819 150.544 134.275 150.183 133.826 149.721C133.383 149.252 133.042 148.708 132.801 148.09C132.566 147.465 132.449 146.794 132.449 146.078V145.688C132.449 144.874 132.566 144.135 132.801 143.471C133.035 142.8 133.367 142.224 133.797 141.742C134.227 141.26 134.741 140.889 135.34 140.629C135.939 140.368 136.6 140.238 137.322 140.238C138.071 140.238 138.732 140.365 139.305 140.619C139.878 140.867 140.356 141.218 140.74 141.674C141.124 142.13 141.414 142.676 141.609 143.314C141.805 143.946 141.902 144.646 141.902 145.414V146.498H133.621V144.721H139.363V144.525C139.35 144.115 139.272 143.741 139.129 143.402C138.986 143.057 138.764 142.784 138.465 142.582C138.165 142.374 137.778 142.27 137.303 142.27C136.919 142.27 136.583 142.354 136.297 142.523C136.017 142.686 135.783 142.921 135.594 143.227C135.411 143.526 135.275 143.884 135.184 144.301C135.092 144.717 135.047 145.18 135.047 145.688V146.078C135.047 146.521 135.105 146.931 135.223 147.309C135.346 147.686 135.525 148.015 135.76 148.295C136.001 148.568 136.287 148.783 136.619 148.939C136.958 149.089 137.342 149.164 137.771 149.164C138.312 149.164 138.8 149.06 139.236 148.852C139.679 148.637 140.063 148.321 140.389 147.904L141.688 149.252C141.466 149.577 141.167 149.89 140.789 150.189C140.418 150.489 139.969 150.733 139.441 150.922C138.914 151.104 138.305 151.195 137.615 151.195ZM150.35 140.434H152.693V150.678C152.693 151.635 152.485 152.445 152.068 153.109C151.658 153.78 151.082 154.288 150.34 154.633C149.598 154.984 148.735 155.16 147.752 155.16C147.329 155.16 146.87 155.102 146.375 154.984C145.887 154.867 145.415 154.682 144.959 154.428C144.51 154.18 144.135 153.858 143.836 153.461L144.998 151.938C145.35 152.348 145.747 152.657 146.189 152.865C146.632 153.08 147.111 153.188 147.625 153.188C148.146 153.188 148.589 153.09 148.953 152.895C149.324 152.706 149.607 152.426 149.803 152.055C150.005 151.69 150.105 151.241 150.105 150.707V142.846L150.35 140.434ZM143.211 145.844V145.639C143.211 144.831 143.309 144.099 143.504 143.441C143.699 142.777 143.979 142.208 144.344 141.732C144.715 141.257 145.161 140.889 145.682 140.629C146.209 140.368 146.801 140.238 147.459 140.238C148.156 140.238 148.742 140.365 149.217 140.619C149.699 140.873 150.096 141.234 150.408 141.703C150.727 142.172 150.975 142.729 151.15 143.373C151.333 144.011 151.473 144.714 151.57 145.482V146.039C151.479 146.788 151.333 147.475 151.131 148.1C150.936 148.725 150.675 149.271 150.35 149.74C150.024 150.202 149.62 150.561 149.139 150.814C148.657 151.068 148.09 151.195 147.439 151.195C146.788 151.195 146.202 151.062 145.682 150.795C145.161 150.528 144.715 150.154 144.344 149.672C143.979 149.19 143.699 148.624 143.504 147.973C143.309 147.322 143.211 146.612 143.211 145.844ZM145.789 145.639V145.844C145.789 146.299 145.835 146.726 145.926 147.123C146.017 147.52 146.157 147.872 146.346 148.178C146.535 148.477 146.772 148.712 147.059 148.881C147.345 149.05 147.687 149.135 148.084 149.135C148.618 149.135 149.054 149.024 149.393 148.803C149.738 148.575 149.998 148.266 150.174 147.875C150.356 147.478 150.473 147.032 150.525 146.537V145.004C150.493 144.613 150.421 144.252 150.311 143.92C150.206 143.588 150.06 143.301 149.871 143.061C149.682 142.82 149.441 142.631 149.148 142.494C148.855 142.357 148.507 142.289 148.104 142.289C147.713 142.289 147.371 142.377 147.078 142.553C146.785 142.722 146.544 142.96 146.355 143.266C146.167 143.572 146.023 143.926 145.926 144.33C145.835 144.734 145.789 145.17 145.789 145.639ZM166.502 136.742V151H163.914V139.76L160.486 140.893V138.803L166.209 136.742H166.502Z" fill="white"/>
</g>
<path d="M754 184H0V186H754V184Z" fill="white" mask="url(#path-10-inside-2_603_105)"/>
<g clip-path="url(#clip4_603_105)">
<mask id="path-13-inside-3_603_105" fill="white">
<path d="M0 185H754V266H0V185Z"/>
</mask>
<path d="M128.299 228.309C128.299 228.035 128.257 227.791 128.172 227.576C128.094 227.355 127.947 227.156 127.732 226.98C127.524 226.798 127.228 226.622 126.844 226.453C126.466 226.277 125.978 226.095 125.379 225.906C124.715 225.698 124.096 225.464 123.523 225.203C122.951 224.943 122.446 224.64 122.01 224.295C121.58 223.95 121.245 223.553 121.004 223.104C120.763 222.648 120.643 222.12 120.643 221.521C120.643 220.936 120.766 220.402 121.014 219.92C121.268 219.438 121.626 219.025 122.088 218.68C122.55 218.328 123.094 218.058 123.719 217.869C124.35 217.68 125.047 217.586 125.809 217.586C126.863 217.586 127.775 217.778 128.543 218.162C129.318 218.546 129.917 219.067 130.34 219.725C130.763 220.382 130.975 221.121 130.975 221.941H128.299C128.299 221.499 128.204 221.108 128.016 220.77C127.833 220.431 127.553 220.164 127.176 219.969C126.805 219.773 126.336 219.676 125.77 219.676C125.223 219.676 124.767 219.757 124.402 219.92C124.044 220.083 123.774 220.304 123.592 220.584C123.416 220.864 123.328 221.176 123.328 221.521C123.328 221.782 123.39 222.016 123.514 222.225C123.637 222.426 123.823 222.618 124.07 222.801C124.318 222.977 124.624 223.143 124.988 223.299C125.359 223.449 125.789 223.598 126.277 223.748C127.059 223.982 127.742 224.243 128.328 224.529C128.921 224.816 129.412 225.141 129.803 225.506C130.2 225.87 130.496 226.281 130.691 226.736C130.893 227.192 130.994 227.71 130.994 228.289C130.994 228.901 130.874 229.448 130.633 229.93C130.392 230.411 130.047 230.822 129.598 231.16C129.148 231.499 128.608 231.756 127.977 231.932C127.352 232.107 126.652 232.195 125.877 232.195C125.187 232.195 124.503 232.104 123.826 231.922C123.156 231.733 122.547 231.453 122 231.082C121.453 230.704 121.017 230.229 120.691 229.656C120.366 229.077 120.203 228.4 120.203 227.625H122.898C122.898 228.074 122.97 228.458 123.113 228.777C123.263 229.09 123.471 229.347 123.738 229.549C124.012 229.744 124.331 229.887 124.695 229.979C125.06 230.07 125.454 230.115 125.877 230.115C126.424 230.115 126.873 230.04 127.225 229.891C127.583 229.734 127.85 229.52 128.025 229.246C128.208 228.973 128.299 228.66 128.299 228.309ZM137.615 232.195C136.814 232.195 136.095 232.065 135.457 231.805C134.819 231.544 134.275 231.183 133.826 230.721C133.383 230.252 133.042 229.708 132.801 229.09C132.566 228.465 132.449 227.794 132.449 227.078V226.688C132.449 225.874 132.566 225.135 132.801 224.471C133.035 223.8 133.367 223.224 133.797 222.742C134.227 222.26 134.741 221.889 135.34 221.629C135.939 221.368 136.6 221.238 137.322 221.238C138.071 221.238 138.732 221.365 139.305 221.619C139.878 221.867 140.356 222.218 140.74 222.674C141.124 223.13 141.414 223.676 141.609 224.314C141.805 224.946 141.902 225.646 141.902 226.414V227.498H133.621V225.721H139.363V225.525C139.35 225.115 139.272 224.741 139.129 224.402C138.986 224.057 138.764 223.784 138.465 223.582C138.165 223.374 137.778 223.27 137.303 223.27C136.919 223.27 136.583 223.354 136.297 223.523C136.017 223.686 135.783 223.921 135.594 224.227C135.411 224.526 135.275 224.884 135.184 225.301C135.092 225.717 135.047 226.18 135.047 226.688V227.078C135.047 227.521 135.105 227.931 135.223 228.309C135.346 228.686 135.525 229.015 135.76 229.295C136.001 229.568 136.287 229.783 136.619 229.939C136.958 230.089 137.342 230.164 137.771 230.164C138.312 230.164 138.8 230.06 139.236 229.852C139.679 229.637 140.063 229.321 140.389 228.904L141.688 230.252C141.466 230.577 141.167 230.89 140.789 231.189C140.418 231.489 139.969 231.733 139.441 231.922C138.914 232.104 138.305 232.195 137.615 232.195ZM150.35 221.434H152.693V231.678C152.693 232.635 152.485 233.445 152.068 234.109C151.658 234.78 151.082 235.288 150.34 235.633C149.598 235.984 148.735 236.16 147.752 236.16C147.329 236.16 146.87 236.102 146.375 235.984C145.887 235.867 145.415 235.682 144.959 235.428C144.51 235.18 144.135 234.858 143.836 234.461L144.998 232.938C145.35 233.348 145.747 233.657 146.189 233.865C146.632 234.08 147.111 234.188 147.625 234.188C148.146 234.188 148.589 234.09 148.953 233.895C149.324 233.706 149.607 233.426 149.803 233.055C150.005 232.69 150.105 232.241 150.105 231.707V223.846L150.35 221.434ZM143.211 226.844V226.639C143.211 225.831 143.309 225.099 143.504 224.441C143.699 223.777 143.979 223.208 144.344 222.732C144.715 222.257 145.161 221.889 145.682 221.629C146.209 221.368 146.801 221.238 147.459 221.238C148.156 221.238 148.742 221.365 149.217 221.619C149.699 221.873 150.096 222.234 150.408 222.703C150.727 223.172 150.975 223.729 151.15 224.373C151.333 225.011 151.473 225.714 151.57 226.482V227.039C151.479 227.788 151.333 228.475 151.131 229.1C150.936 229.725 150.675 230.271 150.35 230.74C150.024 231.202 149.62 231.561 149.139 231.814C148.657 232.068 148.09 232.195 147.439 232.195C146.788 232.195 146.202 232.062 145.682 231.795C145.161 231.528 144.715 231.154 144.344 230.672C143.979 230.19 143.699 229.624 143.504 228.973C143.309 228.322 143.211 227.612 143.211 226.844ZM145.789 226.639V226.844C145.789 227.299 145.835 227.726 145.926 228.123C146.017 228.52 146.157 228.872 146.346 229.178C146.535 229.477 146.772 229.712 147.059 229.881C147.345 230.05 147.687 230.135 148.084 230.135C148.618 230.135 149.054 230.024 149.393 229.803C149.738 229.575 149.998 229.266 150.174 228.875C150.356 228.478 150.473 228.032 150.525 227.537V226.004C150.493 225.613 150.421 225.252 150.311 224.92C150.206 224.588 150.06 224.301 149.871 224.061C149.682 223.82 149.441 223.631 149.148 223.494C148.855 223.357 148.507 223.289 148.104 223.289C147.713 223.289 147.371 223.377 147.078 223.553C146.785 223.722 146.544 223.96 146.355 224.266C146.167 224.572 146.023 224.926 145.926 225.33C145.835 225.734 145.789 226.17 145.789 226.639ZM169.49 229.969V232H159.861V230.262L164.48 225.271C164.962 224.725 165.343 224.249 165.623 223.846C165.903 223.442 166.102 223.077 166.219 222.752C166.342 222.42 166.404 222.104 166.404 221.805C166.404 221.368 166.326 220.988 166.17 220.662C166.014 220.33 165.786 220.073 165.486 219.891C165.193 219.708 164.832 219.617 164.402 219.617C163.927 219.617 163.52 219.728 163.182 219.949C162.85 220.164 162.596 220.464 162.42 220.848C162.251 221.232 162.166 221.671 162.166 222.166H159.578C159.578 221.326 159.773 220.561 160.164 219.871C160.555 219.174 161.115 218.618 161.844 218.201C162.573 217.785 163.439 217.576 164.441 217.576C165.418 217.576 166.245 217.739 166.922 218.064C167.599 218.383 168.113 218.839 168.465 219.432C168.816 220.024 168.992 220.73 168.992 221.551C168.992 222.007 168.917 222.456 168.768 222.898C168.618 223.341 168.406 223.781 168.133 224.217C167.866 224.646 167.547 225.083 167.176 225.525C166.805 225.968 166.391 226.421 165.936 226.883L163.162 229.969H169.49Z" fill="white"/>
</g>
<path d="M754 265H0V267H754V265Z" fill="white" mask="url(#path-13-inside-3_603_105)"/>
<g clip-path="url(#clip5_603_105)">
<mask id="path-16-inside-4_603_105" fill="white">
<path d="M0 266H754V347H0V266Z"/>
</mask>
<path d="M128.299 309.309C128.299 309.035 128.257 308.791 128.172 308.576C128.094 308.355 127.947 308.156 127.732 307.98C127.524 307.798 127.228 307.622 126.844 307.453C126.466 307.277 125.978 307.095 125.379 306.906C124.715 306.698 124.096 306.464 123.523 306.203C122.951 305.943 122.446 305.64 122.01 305.295C121.58 304.95 121.245 304.553 121.004 304.104C120.763 303.648 120.643 303.12 120.643 302.521C120.643 301.936 120.766 301.402 121.014 300.92C121.268 300.438 121.626 300.025 122.088 299.68C122.55 299.328 123.094 299.058 123.719 298.869C124.35 298.68 125.047 298.586 125.809 298.586C126.863 298.586 127.775 298.778 128.543 299.162C129.318 299.546 129.917 300.067 130.34 300.725C130.763 301.382 130.975 302.121 130.975 302.941H128.299C128.299 302.499 128.204 302.108 128.016 301.77C127.833 301.431 127.553 301.164 127.176 300.969C126.805 300.773 126.336 300.676 125.77 300.676C125.223 300.676 124.767 300.757 124.402 300.92C124.044 301.083 123.774 301.304 123.592 301.584C123.416 301.864 123.328 302.176 123.328 302.521C123.328 302.782 123.39 303.016 123.514 303.225C123.637 303.426 123.823 303.618 124.07 303.801C124.318 303.977 124.624 304.143 124.988 304.299C125.359 304.449 125.789 304.598 126.277 304.748C127.059 304.982 127.742 305.243 128.328 305.529C128.921 305.816 129.412 306.141 129.803 306.506C130.2 306.87 130.496 307.281 130.691 307.736C130.893 308.192 130.994 308.71 130.994 309.289C130.994 309.901 130.874 310.448 130.633 310.93C130.392 311.411 130.047 311.822 129.598 312.16C129.148 312.499 128.608 312.756 127.977 312.932C127.352 313.107 126.652 313.195 125.877 313.195C125.187 313.195 124.503 313.104 123.826 312.922C123.156 312.733 122.547 312.453 122 312.082C121.453 311.704 121.017 311.229 120.691 310.656C120.366 310.077 120.203 309.4 120.203 308.625H122.898C122.898 309.074 122.97 309.458 123.113 309.777C123.263 310.09 123.471 310.347 123.738 310.549C124.012 310.744 124.331 310.887 124.695 310.979C125.06 311.07 125.454 311.115 125.877 311.115C126.424 311.115 126.873 311.04 127.225 310.891C127.583 310.734 127.85 310.52 128.025 310.246C128.208 309.973 128.299 309.66 128.299 309.309ZM137.615 313.195C136.814 313.195 136.095 313.065 135.457 312.805C134.819 312.544 134.275 312.183 133.826 311.721C133.383 311.252 133.042 310.708 132.801 310.09C132.566 309.465 132.449 308.794 132.449 308.078V307.688C132.449 306.874 132.566 306.135 132.801 305.471C133.035 304.8 133.367 304.224 133.797 303.742C134.227 303.26 134.741 302.889 135.34 302.629C135.939 302.368 136.6 302.238 137.322 302.238C138.071 302.238 138.732 302.365 139.305 302.619C139.878 302.867 140.356 303.218 140.74 303.674C141.124 304.13 141.414 304.676 141.609 305.314C141.805 305.946 141.902 306.646 141.902 307.414V308.498H133.621V306.721H139.363V306.525C139.35 306.115 139.272 305.741 139.129 305.402C138.986 305.057 138.764 304.784 138.465 304.582C138.165 304.374 137.778 304.27 137.303 304.27C136.919 304.27 136.583 304.354 136.297 304.523C136.017 304.686 135.783 304.921 135.594 305.227C135.411 305.526 135.275 305.884 135.184 306.301C135.092 306.717 135.047 307.18 135.047 307.688V308.078C135.047 308.521 135.105 308.931 135.223 309.309C135.346 309.686 135.525 310.015 135.76 310.295C136.001 310.568 136.287 310.783 136.619 310.939C136.958 311.089 137.342 311.164 137.771 311.164C138.312 311.164 138.8 311.06 139.236 310.852C139.679 310.637 140.063 310.321 140.389 309.904L141.688 311.252C141.466 311.577 141.167 311.89 140.789 312.189C140.418 312.489 139.969 312.733 139.441 312.922C138.914 313.104 138.305 313.195 137.615 313.195ZM150.35 302.434H152.693V312.678C152.693 313.635 152.485 314.445 152.068 315.109C151.658 315.78 151.082 316.288 150.34 316.633C149.598 316.984 148.735 317.16 147.752 317.16C147.329 317.16 146.87 317.102 146.375 316.984C145.887 316.867 145.415 316.682 144.959 316.428C144.51 316.18 144.135 315.858 143.836 315.461L144.998 313.938C145.35 314.348 145.747 314.657 146.189 314.865C146.632 315.08 147.111 315.188 147.625 315.188C148.146 315.188 148.589 315.09 148.953 314.895C149.324 314.706 149.607 314.426 149.803 314.055C150.005 313.69 150.105 313.241 150.105 312.707V304.846L150.35 302.434ZM143.211 307.844V307.639C143.211 306.831 143.309 306.099 143.504 305.441C143.699 304.777 143.979 304.208 144.344 303.732C144.715 303.257 145.161 302.889 145.682 302.629C146.209 302.368 146.801 302.238 147.459 302.238C148.156 302.238 148.742 302.365 149.217 302.619C149.699 302.873 150.096 303.234 150.408 303.703C150.727 304.172 150.975 304.729 151.15 305.373C151.333 306.011 151.473 306.714 151.57 307.482V308.039C151.479 308.788 151.333 309.475 151.131 310.1C150.936 310.725 150.675 311.271 150.35 311.74C150.024 312.202 149.62 312.561 149.139 312.814C148.657 313.068 148.09 313.195 147.439 313.195C146.788 313.195 146.202 313.062 145.682 312.795C145.161 312.528 144.715 312.154 144.344 311.672C143.979 311.19 143.699 310.624 143.504 309.973C143.309 309.322 143.211 308.612 143.211 307.844ZM145.789 307.639V307.844C145.789 308.299 145.835 308.726 145.926 309.123C146.017 309.52 146.157 309.872 146.346 310.178C146.535 310.477 146.772 310.712 147.059 310.881C147.345 311.05 147.687 311.135 148.084 311.135C148.618 311.135 149.054 311.024 149.393 310.803C149.738 310.575 149.998 310.266 150.174 309.875C150.356 309.478 150.473 309.032 150.525 308.537V307.004C150.493 306.613 150.421 306.252 150.311 305.92C150.206 305.588 150.06 305.301 149.871 305.061C149.682 304.82 149.441 304.631 149.148 304.494C148.855 304.357 148.507 304.289 148.104 304.289C147.713 304.289 147.371 304.377 147.078 304.553C146.785 304.722 146.544 304.96 146.355 305.266C146.167 305.572 146.023 305.926 145.926 306.33C145.835 306.734 145.789 307.17 145.789 307.639ZM162.684 304.748H164.139C164.653 304.748 165.076 304.66 165.408 304.484C165.747 304.302 165.997 304.055 166.16 303.742C166.329 303.423 166.414 303.055 166.414 302.639C166.414 302.229 166.339 301.874 166.189 301.574C166.04 301.268 165.812 301.034 165.506 300.871C165.206 300.702 164.822 300.617 164.354 300.617C163.976 300.617 163.628 300.692 163.309 300.842C162.996 300.992 162.745 301.206 162.557 301.486C162.374 301.76 162.283 302.089 162.283 302.473H159.695C159.695 301.704 159.897 301.031 160.301 300.451C160.711 299.865 161.264 299.406 161.961 299.074C162.658 298.742 163.436 298.576 164.295 298.576C165.232 298.576 166.053 298.732 166.756 299.045C167.465 299.351 168.016 299.803 168.406 300.402C168.803 301.001 169.002 301.743 169.002 302.629C169.002 303.052 168.901 303.475 168.699 303.898C168.504 304.315 168.214 304.693 167.83 305.031C167.452 305.363 166.987 305.633 166.434 305.842C165.887 306.044 165.258 306.145 164.549 306.145H162.684V304.748ZM162.684 306.74V305.363H164.549C165.35 305.363 166.043 305.458 166.629 305.646C167.221 305.829 167.71 306.089 168.094 306.428C168.478 306.76 168.761 307.147 168.943 307.59C169.132 308.033 169.227 308.508 169.227 309.016C169.227 309.68 169.103 310.272 168.855 310.793C168.608 311.307 168.26 311.743 167.811 312.102C167.368 312.46 166.847 312.733 166.248 312.922C165.649 313.104 165.001 313.195 164.305 313.195C163.699 313.195 163.11 313.114 162.537 312.951C161.971 312.782 161.46 312.531 161.004 312.199C160.548 311.861 160.187 311.438 159.92 310.93C159.653 310.415 159.52 309.82 159.52 309.143H162.107C162.107 309.533 162.202 309.882 162.391 310.188C162.586 310.493 162.853 310.734 163.191 310.91C163.536 311.079 163.924 311.164 164.354 311.164C164.829 311.164 165.236 311.079 165.574 310.91C165.919 310.734 166.183 310.487 166.365 310.168C166.548 309.842 166.639 309.455 166.639 309.006C166.639 308.472 166.538 308.039 166.336 307.707C166.134 307.375 165.844 307.131 165.467 306.975C165.096 306.818 164.653 306.74 164.139 306.74H162.684Z" fill="white"/>
</g>
<path d="M754 346H0V348H754V346Z" fill="white" mask="url(#path-16-inside-4_603_105)"/>
<g clip-path="url(#clip6_603_105)">
<mask id="path-19-inside-5_603_105" fill="white">
<path d="M0 347H754V428H0V347Z"/>
</mask>
<path d="M128.299 390.309C128.299 390.035 128.257 389.791 128.172 389.576C128.094 389.355 127.947 389.156 127.732 388.98C127.524 388.798 127.228 388.622 126.844 388.453C126.466 388.277 125.978 388.095 125.379 387.906C124.715 387.698 124.096 387.464 123.523 387.203C122.951 386.943 122.446 386.64 122.01 386.295C121.58 385.95 121.245 385.553 121.004 385.104C120.763 384.648 120.643 384.12 120.643 383.521C120.643 382.936 120.766 382.402 121.014 381.92C121.268 381.438 121.626 381.025 122.088 380.68C122.55 380.328 123.094 380.058 123.719 379.869C124.35 379.68 125.047 379.586 125.809 379.586C126.863 379.586 127.775 379.778 128.543 380.162C129.318 380.546 129.917 381.067 130.34 381.725C130.763 382.382 130.975 383.121 130.975 383.941H128.299C128.299 383.499 128.204 383.108 128.016 382.77C127.833 382.431 127.553 382.164 127.176 381.969C126.805 381.773 126.336 381.676 125.77 381.676C125.223 381.676 124.767 381.757 124.402 381.92C124.044 382.083 123.774 382.304 123.592 382.584C123.416 382.864 123.328 383.176 123.328 383.521C123.328 383.782 123.39 384.016 123.514 384.225C123.637 384.426 123.823 384.618 124.07 384.801C124.318 384.977 124.624 385.143 124.988 385.299C125.359 385.449 125.789 385.598 126.277 385.748C127.059 385.982 127.742 386.243 128.328 386.529C128.921 386.816 129.412 387.141 129.803 387.506C130.2 387.87 130.496 388.281 130.691 388.736C130.893 389.192 130.994 389.71 130.994 390.289C130.994 390.901 130.874 391.448 130.633 391.93C130.392 392.411 130.047 392.822 129.598 393.16C129.148 393.499 128.608 393.756 127.977 393.932C127.352 394.107 126.652 394.195 125.877 394.195C125.187 394.195 124.503 394.104 123.826 393.922C123.156 393.733 122.547 393.453 122 393.082C121.453 392.704 121.017 392.229 120.691 391.656C120.366 391.077 120.203 390.4 120.203 389.625H122.898C122.898 390.074 122.97 390.458 123.113 390.777C123.263 391.09 123.471 391.347 123.738 391.549C124.012 391.744 124.331 391.887 124.695 391.979C125.06 392.07 125.454 392.115 125.877 392.115C126.424 392.115 126.873 392.04 127.225 391.891C127.583 391.734 127.85 391.52 128.025 391.246C128.208 390.973 128.299 390.66 128.299 390.309ZM137.615 394.195C136.814 394.195 136.095 394.065 135.457 393.805C134.819 393.544 134.275 393.183 133.826 392.721C133.383 392.252 133.042 391.708 132.801 391.09C132.566 390.465 132.449 389.794 132.449 389.078V388.688C132.449 387.874 132.566 387.135 132.801 386.471C133.035 385.8 133.367 385.224 133.797 384.742C134.227 384.26 134.741 383.889 135.34 383.629C135.939 383.368 136.6 383.238 137.322 383.238C138.071 383.238 138.732 383.365 139.305 383.619C139.878 383.867 140.356 384.218 140.74 384.674C141.124 385.13 141.414 385.676 141.609 386.314C141.805 386.946 141.902 387.646 141.902 388.414V389.498H133.621V387.721H139.363V387.525C139.35 387.115 139.272 386.741 139.129 386.402C138.986 386.057 138.764 385.784 138.465 385.582C138.165 385.374 137.778 385.27 137.303 385.27C136.919 385.27 136.583 385.354 136.297 385.523C136.017 385.686 135.783 385.921 135.594 386.227C135.411 386.526 135.275 386.884 135.184 387.301C135.092 387.717 135.047 388.18 135.047 388.688V389.078C135.047 389.521 135.105 389.931 135.223 390.309C135.346 390.686 135.525 391.015 135.76 391.295C136.001 391.568 136.287 391.783 136.619 391.939C136.958 392.089 137.342 392.164 137.771 392.164C138.312 392.164 138.8 392.06 139.236 391.852C139.679 391.637 140.063 391.321 140.389 390.904L141.688 392.252C141.466 392.577 141.167 392.89 140.789 393.189C140.418 393.489 139.969 393.733 139.441 393.922C138.914 394.104 138.305 394.195 137.615 394.195ZM150.35 383.434H152.693V393.678C152.693 394.635 152.485 395.445 152.068 396.109C151.658 396.78 151.082 397.288 150.34 397.633C149.598 397.984 148.735 398.16 147.752 398.16C147.329 398.16 146.87 398.102 146.375 397.984C145.887 397.867 145.415 397.682 144.959 397.428C144.51 397.18 144.135 396.858 143.836 396.461L144.998 394.938C145.35 395.348 145.747 395.657 146.189 395.865C146.632 396.08 147.111 396.188 147.625 396.188C148.146 396.188 148.589 396.09 148.953 395.895C149.324 395.706 149.607 395.426 149.803 395.055C150.005 394.69 150.105 394.241 150.105 393.707V385.846L150.35 383.434ZM143.211 388.844V388.639C143.211 387.831 143.309 387.099 143.504 386.441C143.699 385.777 143.979 385.208 144.344 384.732C144.715 384.257 145.161 383.889 145.682 383.629C146.209 383.368 146.801 383.238 147.459 383.238C148.156 383.238 148.742 383.365 149.217 383.619C149.699 383.873 150.096 384.234 150.408 384.703C150.727 385.172 150.975 385.729 151.15 386.373C151.333 387.011 151.473 387.714 151.57 388.482V389.039C151.479 389.788 151.333 390.475 151.131 391.1C150.936 391.725 150.675 392.271 150.35 392.74C150.024 393.202 149.62 393.561 149.139 393.814C148.657 394.068 148.09 394.195 147.439 394.195C146.788 394.195 146.202 394.062 145.682 393.795C145.161 393.528 144.715 393.154 144.344 392.672C143.979 392.19 143.699 391.624 143.504 390.973C143.309 390.322 143.211 389.612 143.211 388.844ZM145.789 388.639V388.844C145.789 389.299 145.835 389.726 145.926 390.123C146.017 390.52 146.157 390.872 146.346 391.178C146.535 391.477 146.772 391.712 147.059 391.881C147.345 392.05 147.687 392.135 148.084 392.135C148.618 392.135 149.054 392.024 149.393 391.803C149.738 391.575 149.998 391.266 150.174 390.875C150.356 390.478 150.473 390.032 150.525 389.537V388.004C150.493 387.613 150.421 387.252 150.311 386.92C150.206 386.588 150.06 386.301 149.871 386.061C149.682 385.82 149.441 385.631 149.148 385.494C148.855 385.357 148.507 385.289 148.104 385.289C147.713 385.289 147.371 385.377 147.078 385.553C146.785 385.722 146.544 385.96 146.355 386.266C146.167 386.572 146.023 386.926 145.926 387.33C145.835 387.734 145.789 388.17 145.789 388.639ZM162.527 385.689V394H159.949V383.434H162.371L162.527 385.689ZM162.117 388.336H161.355C161.362 387.568 161.466 386.871 161.668 386.246C161.87 385.621 162.153 385.084 162.518 384.635C162.889 384.186 163.328 383.84 163.836 383.6C164.344 383.359 164.91 383.238 165.535 383.238C166.043 383.238 166.502 383.31 166.912 383.453C167.322 383.596 167.674 383.824 167.967 384.137C168.266 384.449 168.494 384.859 168.65 385.367C168.813 385.868 168.895 386.487 168.895 387.223V394H166.297V387.203C166.297 386.721 166.225 386.34 166.082 386.061C165.945 385.781 165.743 385.582 165.477 385.465C165.216 385.348 164.894 385.289 164.51 385.289C164.113 385.289 163.764 385.37 163.465 385.533C163.172 385.689 162.924 385.908 162.723 386.188C162.527 386.467 162.378 386.79 162.273 387.154C162.169 387.519 162.117 387.913 162.117 388.336Z" fill="white"/>
</g>
<path d="M754 427H0V429H754V427Z" fill="white" mask="url(#path-19-inside-5_603_105)"/>
</g>
<defs>
<clipPath id="clip0_603_105">
<rect width="754" height="425" rx="12" fill="white"/>
</clipPath>
<clipPath id="clip1_603_105">
<rect width="754" height="104" fill="white"/>
</clipPath>
<clipPath id="clip2_603_105">
<path d="M0 0H754V104H0V0Z" fill="white"/>
</clipPath>
<clipPath id="clip3_603_105">
<path d="M0 104H754V185H0V104Z" fill="white"/>
</clipPath>
<clipPath id="clip4_603_105">
<path d="M0 185H754V266H0V185Z" fill="white"/>
</clipPath>
<clipPath id="clip5_603_105">
<path d="M0 266H754V347H0V266Z" fill="white"/>
</clipPath>
<clipPath id="clip6_603_105">
<path d="M0 347H754V428H0V347Z" fill="white"/>
</clipPath>
</defs>
</svg>
