<svg width="97" height="95" viewBox="0 0 97 95" fill="none" xmlns="http://www.w3.org/2000/svg">
<path d="M94.1618 75.1082C92.9686 74.5192 91.6093 74.5494 90.4313 75.1988L82.7136 79.4126C82.2001 79.6996 81.596 79.7147 81.0673 79.4428C80.5387 79.1861 80.1763 78.7028 80.0705 78.1137C79.8591 76.8149 79.0133 75.6972 77.8353 75.1233C76.6572 74.5494 75.2526 74.5796 74.1048 75.2139L66.3871 79.4126C65.8736 79.6996 65.2543 79.7147 64.7257 79.4428C64.1971 79.1861 63.8347 78.7028 63.7289 78.1137C63.5175 76.8149 62.6717 75.6972 61.4937 75.1233C60.3156 74.5494 58.911 74.5796 57.7632 75.2139L50.0455 79.4277C49.532 79.7147 48.9279 79.7298 48.3841 79.4579C47.8555 79.2012 47.4931 78.7179 47.3873 78.1288C47.1759 76.83 46.3301 75.7123 45.1521 75.1384C43.974 74.5645 42.5694 74.5947 41.4216 75.229L33.719 79.4277C33.2055 79.7147 32.6013 79.7298 32.0727 79.473C31.5441 79.2163 31.1817 78.733 31.0759 78.1439C30.8645 76.8451 30.0338 75.7274 28.8407 75.1535C27.6626 74.5796 26.258 74.6098 25.1102 75.2441L17.4076 79.4428C16.879 79.7298 16.2748 79.7449 15.7462 79.473C15.2176 79.2163 14.8552 78.733 14.7494 78.1439C14.538 76.8451 13.7073 75.7274 12.5142 75.1535C11.3361 74.5796 9.93153 74.6098 8.78369 75.2441L1.06598 79.4428C0.522266 79.7449 0.310822 80.4245 0.612885 80.9833C0.914948 81.527 1.59459 81.7385 2.15341 81.4364L9.85601 77.2378C10.3695 76.9508 10.9887 76.9357 11.5174 77.2075C12.046 77.4643 12.4084 77.9476 12.5142 78.5366C12.7256 79.8355 13.5563 80.9531 14.7494 81.527C15.9275 82.101 17.3321 82.0708 18.4799 81.4364L26.1825 77.2378C26.696 76.9508 27.3001 76.9357 27.8288 77.1924C28.3574 77.4492 28.7198 77.9325 28.8256 78.5215C29.037 79.8204 29.8828 80.938 31.0608 81.5119C32.2389 82.0859 33.6435 82.0557 34.7913 81.4213L42.4939 77.2226C43.0074 76.9357 43.6115 76.9206 44.1553 77.1773C44.6839 77.4341 45.0463 77.9174 45.1521 78.5064C45.3635 79.8053 46.2093 80.9229 47.3873 81.4968C47.9612 81.7687 48.5654 81.9197 49.1695 81.9197C49.834 81.9197 50.4986 81.7536 51.1178 81.4213L58.8355 77.2075C59.349 76.9206 59.9531 76.9055 60.4818 77.1773C61.0104 77.4341 61.3728 77.9174 61.4786 78.5215C61.7051 79.8355 62.5056 80.9229 63.7138 81.5119C64.8919 82.0859 66.2965 82.0557 67.4443 81.4213L75.162 77.2226C75.6755 76.9357 76.2796 76.9206 76.8083 77.1924C77.3369 77.4492 77.6993 77.9325 77.8051 78.5215C78.0165 79.8204 78.8623 80.938 80.0403 81.5119C81.2184 82.0859 82.623 82.0557 83.7708 81.4213L91.4885 77.2075C92.002 76.9206 92.6061 76.9055 93.1499 77.1622C93.6785 77.419 94.0409 77.9023 94.1467 78.4913V78.5215C94.2524 79.1407 94.8414 79.5334 95.4455 79.4277C96.0648 79.322 96.4726 78.733 96.3668 78.1137C96.1705 76.7696 95.3549 75.6821 94.1618 75.1082Z" fill="white"/>
<path d="M77.2164 59.4459C77.8205 59.5667 78.4247 59.1589 78.5455 58.5548C78.6965 57.7694 78.772 56.9689 78.772 56.1685C78.772 49.1455 73.0631 43.4365 66.0401 43.4365C59.0322 43.4365 53.3232 49.1455 53.3232 56.1685C53.3232 57.5278 53.5347 58.8417 53.9576 60.1104C54.1237 60.5786 54.5617 60.8807 55.0299 60.8807C55.1507 60.8807 55.2715 60.8656 55.3924 60.8202C55.9814 60.6239 56.3137 59.9745 56.1022 59.3854C55.7548 58.3584 55.5887 57.271 55.5887 56.1685C55.5887 50.3991 60.2707 45.702 66.0401 45.702C71.8095 45.702 76.5066 50.3991 76.5066 56.1685C76.5066 56.8179 76.4462 57.4976 76.3102 58.1319C76.2045 58.7209 76.5972 59.325 77.2164 59.4459Z" fill="white"/>
<path d="M71.9313 36.9574L70.7835 32.4718C70.6627 31.9733 70.2096 31.626 69.681 31.626H62.4164C61.9029 31.626 61.4498 31.9733 61.3138 32.4718L60.1509 36.9574C58.9275 37.335 57.7495 37.8183 56.6319 38.4073L52.6295 36.0663C52.1915 35.8095 51.6176 35.87 51.2551 36.2475L46.1201 41.3826C45.7576 41.7451 45.6821 42.319 45.9388 42.757L48.2949 46.7442C47.7059 47.8619 47.2226 49.0399 46.845 50.2633L42.3292 51.4262C41.8308 51.5621 41.4834 52.0001 41.4834 52.5287V58.2679C41.4834 58.8872 41.9969 59.4007 42.6161 59.4007C43.2354 59.4007 43.7489 58.8872 43.7489 58.2679V53.4047L48.0382 52.3022C48.4308 52.1965 48.748 51.8944 48.8537 51.5017C49.2464 50.0065 49.8354 48.6019 50.5755 47.303C50.7869 46.9557 50.7718 46.5177 50.5755 46.1552L48.3402 42.3643L52.2368 38.4677L56.0428 40.703C56.3902 40.9144 56.8282 40.9144 57.1756 40.703C58.4895 39.9478 59.8941 39.3739 61.3742 38.9661C61.7669 38.8604 62.069 38.5583 62.1747 38.1505L63.2772 33.8763H68.7899L69.8773 38.1505C69.983 38.5432 70.2851 38.8604 70.6778 38.9661C72.1579 39.3588 73.5625 39.9478 74.8765 40.703C75.2389 40.8993 75.6618 40.8993 76.0092 40.703L79.8152 38.4677L83.7118 42.3643L81.4765 46.1552C81.2651 46.5026 81.2651 46.9406 81.4614 47.2879C82.2166 48.6321 82.8056 50.0518 83.1983 51.5017C83.304 51.8944 83.6212 52.1965 84.0139 52.3022L88.2881 53.4047V58.8267C88.2881 59.446 88.8016 59.9595 89.4208 59.9595C90.04 59.9595 90.5535 59.446 90.5535 58.8267V52.5287C90.5535 52.0152 90.2062 51.5621 89.7078 51.4262L85.207 50.2633C84.8445 49.0701 84.3612 47.8921 83.7571 46.7442L86.0981 42.757C86.3548 42.319 86.2944 41.7451 85.9169 41.3826L80.7818 36.2475C80.4193 35.8851 79.8454 35.8095 79.4074 36.0663L75.4051 38.4073C74.3327 37.8183 73.1547 37.3199 71.9313 36.9574Z" fill="white"/>
<path d="M17.1368 5.43701C14.2521 5.43701 11.9111 7.778 11.9111 10.6627C11.9111 13.5474 14.2521 15.8884 17.1368 15.8884C20.0215 15.8884 22.3625 13.5474 22.3625 10.6627C22.3625 7.778 20.0215 5.43701 17.1368 5.43701ZM17.1368 13.6078C15.5057 13.6078 14.1766 12.2787 14.1766 10.6476C14.1766 9.01646 15.5057 7.68738 17.1368 7.68738C18.768 7.68738 20.097 9.01646 20.097 10.6476C20.097 12.2787 18.768 13.6078 17.1368 13.6078Z" fill="white"/>
<path d="M31.379 5.43701C28.4943 5.43701 26.1533 7.778 26.1533 10.6627C26.1533 13.5474 28.4943 15.8884 31.379 15.8884C34.2637 15.8884 36.6047 13.5474 36.6047 10.6627C36.6047 7.778 34.2637 5.43701 31.379 5.43701ZM31.379 13.6078C29.7479 13.6078 28.4188 12.2787 28.4188 10.6476C28.4188 9.01646 29.7479 7.68738 31.379 7.68738C33.0102 7.68738 34.3392 9.01646 34.3392 10.6476C34.3392 12.2787 33.0102 13.6078 31.379 13.6078Z" fill="white"/>
<path d="M70.3892 6.52441H49.5771C48.9578 6.52441 48.4443 7.03792 48.4443 7.65715C48.4443 8.27638 48.9578 8.78989 49.5771 8.78989H70.3892C71.0084 8.78989 71.5219 8.27638 71.5219 7.65715C71.5219 7.03792 71.0084 6.52441 70.3892 6.52441Z" fill="white"/>
<path d="M70.3892 12.521H49.5771C48.9578 12.521 48.4443 13.0345 48.4443 13.6537C48.4443 14.273 48.9578 14.7865 49.5771 14.7865H70.3892C71.0084 14.7865 71.5219 14.273 71.5219 13.6537C71.5219 13.0345 71.0084 12.521 70.3892 12.521Z" fill="white"/>
<path d="M11.9111 35.7335C11.9111 38.6182 14.2521 40.9592 17.1368 40.9592C20.0215 40.9592 22.3625 38.6182 22.3625 35.7335C22.3625 32.8488 20.0215 30.5078 17.1368 30.5078C14.2521 30.5078 11.9111 32.8639 11.9111 35.7335ZM20.097 35.7335C20.097 37.3646 18.768 38.6937 17.1368 38.6937C15.5057 38.6937 14.1766 37.3646 14.1766 35.7335C14.1766 34.1024 15.5057 32.7733 17.1368 32.7733C18.768 32.7733 20.097 34.1024 20.097 35.7335Z" fill="white"/>
<path d="M26.168 35.7335C26.168 38.6182 28.509 40.9592 31.3937 40.9592C34.2784 40.9592 36.6193 38.6182 36.6193 35.7335C36.6193 32.8488 34.2784 30.5078 31.3937 30.5078C28.509 30.5078 26.168 32.8639 26.168 35.7335ZM34.3388 35.7335C34.3388 37.3646 33.0097 38.6937 31.3786 38.6937C29.7474 38.6937 28.4183 37.3646 28.4183 35.7335C28.4183 34.1024 29.7474 32.7733 31.3786 32.7733C33.0097 32.7733 34.3388 34.1024 34.3388 35.7335Z" fill="white"/>
<path d="M7.46867 60.2616C8.0879 60.2616 8.60141 59.748 8.60141 59.1288V54.326C8.60141 53.2839 9.44719 52.4381 10.4893 52.4381H38.113C38.7322 52.4381 39.2457 51.9246 39.2457 51.3054C39.2457 50.6862 38.7322 50.1727 38.113 50.1727H14.8692V46.3969H43.4897C44.1089 46.3969 44.6224 45.8834 44.6224 45.2641C44.6224 44.6449 44.1089 44.1314 43.4897 44.1314H10.4893C9.44719 44.1314 8.60141 43.2856 8.60141 42.2435V29.2397C8.60141 28.1976 9.44719 27.3518 10.4893 27.3518H74.9797C76.0219 27.3518 76.8676 28.1976 76.8676 29.2397V32.9702C76.8676 33.5894 77.3811 34.1029 78.0004 34.1029C78.6196 34.1029 79.1331 33.5894 79.1331 32.9702V29.2397C79.1331 26.944 77.2754 25.0863 74.9797 25.0863H72.8653V21.3105H74.9797C77.2754 21.3105 79.1331 19.4529 79.1331 17.1572V4.15337C79.1331 1.85769 77.2754 0 74.9797 0H10.4893C8.19362 0 6.33594 1.85769 6.33594 4.15337V17.1572C6.33594 19.4529 8.19362 21.3105 10.4893 21.3105H12.6037V25.0863H10.4893C8.19362 25.0863 6.33594 26.944 6.33594 29.2397V42.2435C6.33594 44.5392 8.19362 46.3969 10.4893 46.3969H12.6037V50.1727H10.4893C8.19362 50.1727 6.33594 52.0303 6.33594 54.326V59.1288C6.33594 59.748 6.83434 60.2616 7.46867 60.2616ZM8.60141 17.1572V4.15337C8.60141 3.11125 9.44719 2.26547 10.4893 2.26547H74.9797C76.0219 2.26547 76.8676 3.11125 76.8676 4.15337V17.1572C76.8676 18.1993 76.0219 19.0451 74.9797 19.0451H10.4893C9.44719 19.0451 8.60141 18.1993 8.60141 17.1572ZM14.8692 21.3105H70.5847V25.0863H14.8692V21.3105Z" fill="white"/>
<path d="M12.619 58.2224C12.3018 58.7661 12.483 59.4608 13.0267 59.7629C13.5705 60.0801 14.2652 59.8988 14.5673 59.3551C15.111 58.4187 16.0625 57.875 17.1197 57.875C18.63 57.875 19.8836 59.0077 20.0346 60.5181C20.095 61.092 20.5934 61.53 21.1673 61.53C21.2126 61.53 21.2429 61.53 21.2882 61.53C21.9074 61.4696 22.3605 60.9107 22.3001 60.2764C22.0131 57.6183 19.793 55.6095 17.1197 55.6095C15.2922 55.5944 13.5554 56.6063 12.619 58.2224Z" fill="white"/>
<path d="M35.215 62.6484C35.2754 62.6635 35.3509 62.6635 35.4113 62.6635C35.9551 62.6635 36.4233 62.2859 36.529 61.7271C36.5894 61.425 36.6196 61.123 36.6196 60.8209C36.6196 57.9362 34.2786 55.5952 31.3939 55.5952C29.8081 55.5952 28.3129 56.3202 27.3161 57.5888C26.9234 58.0721 27.014 58.7971 27.4973 59.1747C27.9957 59.5673 28.7055 59.4767 29.0831 58.9934C29.657 58.2685 30.4877 57.8607 31.3939 57.8607C33.025 57.8607 34.3541 59.1898 34.3541 60.8209C34.3541 61.0021 34.3239 61.1683 34.2937 61.3344C34.188 61.9536 34.5958 62.5427 35.215 62.6484Z" fill="white"/>
<path d="M94.1618 88.1873C92.9686 87.5983 91.6093 87.6285 90.4313 88.2779L82.7136 92.4917C82.2001 92.7787 81.596 92.7938 81.0673 92.5219C80.5387 92.2652 80.1763 91.7819 80.0705 91.1928C79.8591 89.894 79.0133 88.7763 77.8353 88.2024C76.6572 87.6285 75.2526 87.6587 74.1048 88.293L66.3871 92.4917C65.8736 92.7787 65.2544 92.7938 64.7257 92.5219C64.1971 92.2652 63.8347 91.7819 63.7289 91.1928C63.5175 89.894 62.6868 88.7763 61.4937 88.2024C60.3156 87.6285 58.911 87.6587 57.7632 88.293L50.0455 92.4917C49.532 92.7787 48.9128 92.7938 48.3841 92.5219C47.8555 92.2652 47.4931 91.7819 47.3873 91.1928C47.1759 89.894 46.3301 88.7763 45.1521 88.2024C43.974 87.6285 42.5694 87.6587 41.4216 88.293L33.719 92.4917C33.2055 92.7787 32.6014 92.7938 32.0727 92.537C31.5441 92.2803 31.1817 91.797 31.0759 91.2079C30.8645 89.9091 30.0338 88.7914 28.8407 88.2175C27.6626 87.6436 26.258 87.6738 25.1102 88.3081L17.4076 92.5068C16.879 92.7938 16.2748 92.8089 15.7462 92.537C15.2176 92.2803 14.8552 91.797 14.7494 91.2079C14.538 89.9091 13.7073 88.7914 12.5142 88.2175C11.3361 87.6436 9.93153 87.6738 8.78369 88.3081L1.06598 92.5068C0.522266 92.8089 0.310822 93.4885 0.612885 94.0473C0.914948 94.591 1.59459 94.8025 2.15341 94.5004L9.85601 90.3017C10.3695 90.0148 10.9887 89.9997 11.5174 90.2715C12.046 90.5283 12.4084 91.0116 12.5142 91.6006C12.7256 92.8995 13.5563 94.0171 14.7494 94.591C15.9275 95.165 17.3321 95.1348 18.4799 94.5004L26.1825 90.3017C26.696 90.0148 27.3001 89.9997 27.8439 90.2715C28.3725 90.5283 28.7349 91.0116 28.8256 91.6006C29.037 92.8995 29.8828 94.0171 31.0608 94.591C32.2389 95.165 33.6435 95.1348 34.7913 94.5004L42.4939 90.3017C43.0074 90.0148 43.6115 89.9997 44.1553 90.2715C44.6839 90.5283 45.0463 91.0116 45.1521 91.6006C45.3786 92.9146 46.1791 94.002 47.3873 94.591C48.5654 95.165 49.97 95.1348 51.1178 94.5004L58.8355 90.3017C59.349 90.0148 59.9531 89.9997 60.4969 90.2715C61.0255 90.5283 61.3879 91.0116 61.4937 91.6006C61.7202 92.9146 62.5207 94.002 63.7289 94.591C64.2878 94.8629 64.907 94.9988 65.5111 94.9988C66.1907 94.9988 66.8553 94.8327 67.4594 94.5004L75.1771 90.3017C75.6906 90.0148 76.2948 89.9997 76.8234 90.2715C77.352 90.5283 77.7144 91.0116 77.8202 91.6006C78.0316 92.8995 78.8774 94.0171 80.0554 94.591C81.2335 95.165 82.6381 95.1348 83.7859 94.5004L91.5036 90.2866C92.0171 89.9997 92.6213 89.9846 93.165 90.2413C93.6936 90.4981 94.0561 90.9814 94.1618 91.5855V91.6157C94.2826 92.2198 94.8565 92.6125 95.4757 92.5068C96.0799 92.4011 96.4877 91.8121 96.397 91.1928C96.1705 89.8638 95.3549 88.7612 94.1618 88.1873Z" fill="white"/>
<path d="M2.18368 68.2964L9.90139 64.0977C10.4149 63.8108 11.019 63.7957 11.5627 64.0675C12.0913 64.3243 12.4538 64.8076 12.5595 65.3966C12.771 66.6955 13.6017 67.8131 14.7948 68.387C15.9729 68.9609 17.3774 68.9307 18.5253 68.2964L26.2279 64.0977C26.7414 63.8108 27.3455 63.7957 27.8741 64.0524C28.4027 64.3092 28.7652 64.7925 28.8709 65.3815C29.0824 66.6803 29.9282 67.798 31.1062 68.3719C32.2843 68.9458 33.6888 68.9156 34.8367 68.2813L42.5393 64.0826C43.0528 63.7957 43.6569 63.7805 44.2006 64.0373C44.7292 64.2941 45.0917 64.7774 45.1974 65.3664C45.4089 66.6652 46.2547 67.7829 47.4327 68.3568C48.6259 68.9458 49.9851 68.9156 51.1632 68.2662L58.8658 64.0977C59.3793 63.8108 59.9834 63.7957 60.512 64.0675C61.0406 64.3243 61.4031 64.8076 61.5088 65.4117C61.7203 66.7106 62.5661 67.8282 63.7441 68.4021C64.318 68.674 64.9221 68.825 65.5263 68.825C66.1908 68.825 66.8554 68.6589 67.4746 68.3266L75.1772 64.0977C75.6907 63.8108 76.2948 63.7957 76.8234 64.0675C77.352 64.3243 77.7145 64.8076 77.8202 65.3966C78.0317 66.6955 78.8775 67.8131 80.0555 68.387C81.2335 68.9609 82.6381 68.9307 83.786 68.2964L91.5188 64.0977C92.0323 63.8108 92.6364 63.7957 93.1801 64.0524C93.7087 64.3092 94.0712 64.7925 94.1769 65.3966V65.4268C94.2978 66.0309 94.8717 66.4236 95.4909 66.3179C96.095 66.2122 96.5028 65.6231 96.4122 65.0039C96.1857 63.6899 95.3852 62.6025 94.1769 62.0135C92.9838 61.4245 91.6245 61.4547 90.4465 62.1041L82.7288 66.3179C82.2153 66.6048 81.6111 66.6199 81.0825 66.3481C80.5539 66.0913 80.1914 65.608 80.0857 65.019C79.8743 63.7201 79.0285 62.6025 77.8504 62.0286C76.6724 61.4547 75.2678 61.4849 74.12 62.1192L66.4023 66.333C65.8888 66.6199 65.2846 66.635 64.7409 66.3632C64.2123 66.1064 63.8498 65.6231 63.7441 65.0341C63.5327 63.7352 62.6869 62.6176 61.5088 62.0437C60.3308 61.4698 58.9262 61.5 57.7784 62.1343L50.0607 66.3481C49.5471 66.635 48.943 66.6501 48.3993 66.3783C47.8707 66.1215 47.5082 65.6382 47.4025 65.0492C47.1911 63.7503 46.3453 62.6327 45.1672 62.0588C43.9892 61.4849 42.5846 61.5151 41.4368 62.1494L33.7342 66.3481C33.2206 66.635 32.6165 66.6501 32.0879 66.3934C31.5593 66.1366 31.1968 65.6533 31.0911 65.0643C30.8797 63.7654 30.049 62.6478 28.8558 62.0739C27.6778 61.5 26.2732 61.5302 25.1254 62.1645L17.4228 66.3632C16.8941 66.6501 16.29 66.6652 15.7614 66.3934C15.2328 66.0913 14.8703 65.608 14.7797 65.019C14.5683 63.705 13.7527 62.6176 12.5444 62.0286C11.3664 61.4547 9.9618 61.4849 8.81396 62.1192L1.09625 66.3179C0.55254 66.6199 0.341096 67.2996 0.643159 67.8584C0.945222 68.4021 1.63997 68.5984 2.18368 68.2964Z" fill="white"/>
</svg>
