<svg width="95" height="95" viewBox="0 0 95 95" fill="none" xmlns="http://www.w3.org/2000/svg">
<path fill-rule="evenodd" clip-rule="evenodd" d="M24.3595 47.7929C23.5157 47.7929 22.8322 47.1093 22.8322 46.2656C22.8322 45.4219 23.5158 44.7383 24.3595 44.7383H47.8245C48.6682 44.7383 49.3518 45.4219 49.3518 46.2656C49.3518 47.1093 48.6682 47.7929 47.8245 47.7929H24.3595ZM94.2075 13.3279L81.8875 0.546875L81.8757 0.53125L81.864 0.519531L81.8523 0.503907L81.7742 0.425781L81.7664 0.414063L81.7351 0.382813L81.7195 0.371094L81.7078 0.367188L81.6882 0.351563L81.6843 0.347657V0.34375L81.6609 0.324219L81.6531 0.316407L81.6296 0.300781L81.6257 0.296875L81.6023 0.28125L81.5945 0.273438L81.5711 0.257813L81.5671 0.253907H81.5632L81.5593 0.25L81.5359 0.234375L81.532 0.230469L81.5359 0.238281L81.5086 0.222657L81.5046 0.21875L81.4773 0.203125L81.4734 0.199219L81.4461 0.183594L81.4382 0.175781L81.4109 0.164063L81.3796 0.148438H81.3757L81.3367 0.128907L81.3093 0.117188L81.3015 0.113281L81.2703 0.101563L81.2351 0.089844L81.2039 0.078125H81.1961L81.1687 0.070313V0.0664072L81.1375 0.054688H81.1296C81.1062 0.046875 81.0828 0.0429692 81.0593 0.0351572H81.0515L81.0203 0.027344L81.0125 0.023438L80.9812 0.015625H80.9421L80.9109 0.011719L80.8757 0.00781298H80.8679L80.8367 0.0039072H80.825L80.7976 0H39.8916C39.0479 0 38.3643 0.68359 38.3643 1.5273V15.2303C35.626 14.953 32.8799 15.1834 30.2588 15.8866C24.7197 17.371 19.7388 20.9569 16.6218 26.2966C16.5788 26.363 16.5359 26.4294 16.5046 26.4997C13.4421 31.8708 12.8249 37.9727 14.3093 43.5077C15.6804 48.6249 18.8445 53.2616 23.5241 56.3987L19.5124 63.344L19.1452 63.1291C17.9929 62.4651 16.6804 62.3283 15.4929 62.6487C14.3406 62.9572 13.2976 63.6956 12.6296 64.7893C12.6101 64.8205 12.5867 64.8518 12.5671 64.8869L0.696137 85.4489C0.649262 85.5153 0.610199 85.5856 0.578947 85.6559C-0.0265232 86.777 -0.143713 88.0426 0.164887 89.1911C0.473477 90.3434 1.20789 91.3864 2.29769 92.0505C2.36019 92.0974 2.4305 92.1365 2.50081 92.1677L5.78601 94.0622V94.0583L5.78991 94.0622C6.93831 94.7263 8.25081 94.8591 9.43831 94.5427C10.5906 94.2341 11.6297 93.4958 12.3016 92.4021C12.3251 92.3709 12.3446 92.3396 12.3641 92.3045L24.2861 71.6564H24.2822L24.2861 71.6525C24.9502 70.5041 25.083 69.1916 24.7666 68.0041C24.4463 66.8127 23.6768 65.7424 22.5283 65.0783L22.1572 64.8635L26.1689 57.9182C30.0712 59.8362 34.2939 60.5237 38.3719 60.1096V72.6366C38.3719 73.4804 39.0555 74.1639 39.8992 74.1639L93.1842 74.1678C94.0279 74.1678 94.7115 73.4842 94.7115 72.6405L94.7154 14.4645C94.7154 14.0114 94.516 13.6052 94.2075 13.3279ZM91.6567 15.992H80.7157C79.8719 15.992 79.1884 15.3084 79.1884 14.4647V3.05468H41.4184V15.7537C43.4184 16.242 45.3872 17.0115 47.2661 18.0818C47.3364 18.1169 47.4067 18.156 47.4692 18.199C52.809 21.3162 56.395 26.2967 57.8792 31.836C59.3714 37.4102 58.7385 43.555 55.6214 48.949C52.5081 54.3435 47.5042 57.9646 41.9264 59.457C41.7584 59.5038 41.5865 59.5468 41.4147 59.5859V71.1089H91.6527L91.6605 15.9919L91.6567 15.992ZM82.2426 5.30398L89.5981 12.9329H82.2426V5.30398ZM20.9966 67.718C21.4145 67.9602 21.6997 68.3547 21.8169 68.7922C21.9341 69.2336 21.8872 69.7141 21.6489 70.132H21.645L9.77399 90.691C9.73493 90.7496 9.69977 90.8121 9.66852 90.8746C9.42633 91.2418 9.05914 91.4917 8.64902 91.6011C8.23886 91.7105 7.79355 91.6792 7.39902 91.48C7.34043 91.441 7.28183 91.4058 7.21933 91.3746L3.93413 89.4762C3.51616 89.234 3.23491 88.8394 3.11772 88.402C3.00053 87.9606 3.04741 87.4801 3.2896 87.0622V87.0583L15.2116 66.4103C15.2233 66.3907 15.235 66.3673 15.2468 66.3478C15.4889 65.9649 15.864 65.7032 16.2859 65.59C16.7273 65.4728 17.2077 65.5196 17.6257 65.7618L20.9966 67.718ZM28.1646 80.593C27.3208 80.593 26.6373 79.9094 26.6373 79.0657C26.6373 78.222 27.3209 77.5384 28.1646 77.5384H43.8596C44.7033 77.5384 45.3869 78.222 45.3869 79.0657C45.3869 79.9094 44.7033 80.593 43.8596 80.593H28.1646ZM49.0166 80.593C48.1728 80.593 47.4893 79.9094 47.4893 79.0657C47.4893 78.222 48.1728 77.5384 49.0166 77.5384H59.4816C60.3253 77.5384 61.0089 78.222 61.0089 79.0657C61.0089 79.9094 60.3253 80.593 59.4816 80.593H49.0166ZM64.6376 80.593C63.7938 80.593 63.1103 79.9094 63.1103 79.0657C63.1103 78.222 63.7938 77.5384 64.6376 77.5384H85.4146C86.2583 77.5384 86.9419 78.222 86.9419 79.0657C86.9419 79.9094 86.2583 80.593 85.4146 80.593H64.6376ZM28.1646 89.2649C27.3208 89.2649 26.6373 88.5813 26.6373 87.7376C26.6373 86.8939 27.3209 86.2103 28.1646 86.2103H44.0086C44.8523 86.2103 45.5359 86.8939 45.5359 87.7376C45.5359 88.5813 44.8523 89.2649 44.0086 89.2649H28.1646ZM49.6916 89.2649C48.8478 89.2649 48.1643 88.5813 48.1643 87.7376C48.1643 86.8939 48.8479 86.2103 49.6916 86.2103H85.4146C86.2583 86.2103 86.9419 86.8939 86.9419 87.7376C86.9419 88.5813 86.2583 89.2649 85.4146 89.2649H49.6916ZM24.3596 30.6049C23.5158 30.6049 22.8323 29.9213 22.8323 29.0776C22.8323 28.2339 23.5159 27.5503 24.3596 27.5503L47.8246 27.5464C48.6683 27.5464 49.3519 28.23 49.3519 29.0737C49.3519 29.9174 48.6683 30.601 47.8246 30.601L24.3596 30.6049ZM24.3596 39.1987C23.5158 39.1987 22.8323 38.5151 22.8323 37.6714C22.8323 36.8277 23.5159 36.1441 24.3596 36.1441L47.8246 36.1402C48.6683 36.1402 49.3519 36.8238 49.3519 37.6675C49.3519 38.5112 48.6683 39.1948 47.8246 39.1948L24.3596 39.1987ZM54.9296 32.6206C53.6366 27.8003 50.5077 23.4722 45.8437 20.7766C43.8828 19.6438 41.8085 18.8938 39.7031 18.4954C39.6445 18.4876 39.5898 18.4797 39.5351 18.4641C36.6874 17.9524 33.789 18.093 31.0468 18.8274C26.2265 20.1204 21.8984 23.2493 19.2028 27.9133C16.5114 32.5735 15.9645 37.8899 17.2575 42.7143C18.5505 47.5346 21.6833 51.8666 26.3473 54.5583C30.4996 56.9528 35.1637 57.6521 39.5423 56.863C39.5892 56.8513 39.6399 56.8435 39.6868 56.8357C40.1751 56.7419 40.6634 56.6325 41.1438 56.5036C45.9641 55.2106 50.2961 52.0817 52.9878 47.4138C55.6753 42.7576 56.2226 37.4448 54.9296 32.6206Z" fill="white"/>
</svg>
