
<svg width="67" height="86" viewBox="0 0 67 86" fill="none" xmlns="http://www.w3.org/2000/svg">
<path d="M10.75 80.0278H22.6944V47.7778H10.75V80.0278ZM13.1389 50.1667H20.3056V77.6389H13.1389V50.1667Z" fill="white"/>
<path d="M27.4727 80.0278H39.4171V37.0278H27.4727V80.0278ZM29.8615 39.4167H37.0282V77.6389H29.8615V39.4167Z" fill="white"/>
<path d="M44.1953 80.0278H56.1398V47.7778H44.1953V80.0278ZM46.5842 50.1667H53.7509V77.6389H46.5842V50.1667Z" fill="white"/>
<path d="M37.2668 19.5737L24.9937 31.8431L18.9357 26.9944L7.43555 41.0477L9.28694 42.5632L19.2868 30.3387L25.1732 35.0456L36.789 23.4261L47.3975 41.1038L59.1929 33.2429L57.8641 31.2571L48.1595 37.7295L37.2668 19.5737Z" fill="white"/>
<path d="M51.8542 0H0V86H66.8889V15.0347L51.8542 0ZM52.5559 4.07602L62.8129 14.333H52.5559V4.07602ZM64.5004 83.6107H2.38925V2.38851H50.167V16.7218H64.5004V83.6107Z" fill="white"/>
</svg>
